<svg version="1.1" viewBox="0.0 0.0 761.0 473.0" fill="none" stroke="none" stroke-linecap="square" stroke-miterlimit="10" width="761" height="473" xmlns:xlink="http://www.w3.org/1999/xlink" xmlns="http://www.w3.org/2000/svg"><path fill="#ffffff" d="M0 0L761.0 0L761.0 473.0L0 473.0L0 0Z" fill-rule="nonzero"/><path stroke="#333333" stroke-width="1.0" stroke-linecap="butt" d="M150.5 63.5L150.5 397.5" fill-rule="nonzero"/><path stroke="#cccccc" stroke-width="1.0" stroke-linecap="butt" d="M297.5 63.5L297.5 397.5" fill-rule="nonzero"/><path stroke="#cccccc" stroke-width="1.0" stroke-linecap="butt" d="M444.5 63.5L444.5 397.5" fill-rule="nonzero"/><path stroke="#cccccc" stroke-width="1.0" stroke-linecap="butt" d="M590.5 63.5L590.5 397.5" fill-rule="nonzero"/><path stroke="#cccccc" stroke-width="1.0" stroke-linecap="butt" d="M737.5 63.5L737.5 397.5" fill-rule="nonzero"/><clipPath id="id_0"><path d="M150.65 63.416668L737.35 63.416668L737.35 397.35L150.65 397.35L150.65 63.416668Z" clip-rule="nonzero"/></clipPath><path stroke="#000000" stroke-width="2.0" stroke-linecap="butt" stroke-opacity="0.0" clip-path="url(#id_0)" d="M151.0 164.0L151.0 99.0L604.0 99.0C605.10455 99.0 606.0 99.89543 606.0 101.0L606.0 162.0C606.0 163.10457 605.10455 164.0 604.0 164.0Z" fill-rule="nonzero"/><path fill="#6fa8dc" clip-path="url(#id_0)" d="M151.0 164.0L151.0 99.0L604.0 99.0C605.10455 99.0 606.0 99.89543 606.0 101.0L606.0 162.0C606.0 163.10457 605.10455 164.0 604.0 164.0Z" fill-rule="nonzero"/><path stroke="#000000" stroke-width="2.0" stroke-linecap="butt" stroke-opacity="0.0" clip-path="url(#id_0)" d="M151.0 263.0L151.0 198.0L605.0 198.0C606.10455 198.0 607.0 198.89543 607.0 200.0L607.0 261.0C607.0 262.10458 606.10455 263.0 605.0 263.0Z" fill-rule="nonzero"/><path fill="#6fa8dc" clip-path="url(#id_0)" d="M151.0 263.0L151.0 198.0L605.0 198.0C606.10455 198.0 607.0 198.89543 607.0 200.0L607.0 261.0C607.0 262.10458 606.10455 263.0 605.0 263.0Z" fill-rule="nonzero"/><path stroke="#000000" stroke-width="2.0" stroke-linecap="butt" stroke-opacity="0.0" clip-path="url(#id_0)" d="M151.0 363.0L151.0 298.0L598.0 298.0C599.10455 298.0 600.0 298.89542 600.0 300.0L600.0 361.0C600.0 362.10458 599.10455 363.0 598.0 363.0Z" fill-rule="nonzero"/><path fill="#6fa8dc" clip-path="url(#id_0)" d="M151.0 363.0L151.0 298.0L598.0 298.0C599.10455 298.0 600.0 298.89542 600.0 300.0L600.0 361.0C600.0 362.10458 599.10455 363.0 598.0 363.0Z" fill-rule="nonzero"/><path stroke="#6fa8dc" stroke-width="3.0" stroke-linejoin="round" stroke-linecap="round" d="M575.7038 130.70312L576.5163 130.70312Q577.29755 130.6875 577.73505 130.29688Q578.17255 129.90625 578.17255 129.23438Q578.17255 127.734375 576.67255 127.734375Q575.9694 127.734375 575.54755 128.14062Q575.1413 128.54688 575.1413 129.20312L574.04755 129.20312Q574.04755 128.1875 574.7819 127.515625Q575.5319 126.84375 576.67255 126.84375Q577.8757 126.84375 578.5632 127.484375Q579.2507 128.125 579.2507 129.26562Q579.2507 129.82812 578.8913 130.34375Q578.5319 130.85938 577.9069 131.125Q578.61005 131.34375 578.98505 131.85938Q579.3757 132.375 579.3757 133.125Q579.3757 134.26562 578.6257 134.95312Q577.8757 135.625 576.67255 135.625Q575.48505 135.625 574.7194 134.96875Q573.9694 134.3125 573.9694 133.25L575.0632 133.25Q575.0632 133.92188 575.5007 134.32812Q575.9382 134.73438 576.6882 134.73438Q577.4694 134.73438 577.8757 134.32812Q578.29755 133.90625 578.29755 133.14062Q578.29755 132.40625 577.8444 132.01562Q577.3913 131.60938 576.5163 131.59375L575.7038 131.59375L575.7038 130.70312ZM584.6882 135.5L583.61005 135.5L583.61005 128.28125L581.42255 129.07812L581.42255 128.09375L584.5319 126.921875L584.6882 126.921875L584.6882 135.5ZM593.48505 131.85938Q593.48505 133.76562 592.8288 134.70312Q592.1882 135.625 590.79755 135.625Q589.4382 135.625 588.7819 134.71875Q588.1257 133.8125 588.0944 132.0L588.0944 130.5625Q588.0944 128.67188 588.73505 127.765625Q589.3913 126.84375 590.7819 126.84375Q592.1569 126.84375 592.8132 127.734375Q593.4694 128.60938 593.48505 130.45312L593.48505 131.85938ZM592.3913 130.375Q592.3913 129.0 592.0007 128.375Q591.6257 127.734375 590.7819 127.734375Q589.9538 127.734375 589.5632 128.375Q589.1882 129.0 589.1882 130.29688L589.1882 132.03125Q589.1882 133.40625 589.5788 134.07812Q589.98505 134.73438 590.79755 134.73438Q591.5944 134.73438 591.98505 134.10938Q592.3757 133.48438 592.3913 132.15625L592.3913 130.375ZM599.3913 126.96875L599.3913 127.875L599.1882 127.875Q597.92255 127.90625 597.17255 128.64062Q596.42255 129.35938 596.29755 130.67188Q596.98505 129.90625 598.1413 129.90625Q599.2507 129.90625 599.92255 130.6875Q600.5944 131.46875 600.5944 132.71875Q600.5944 134.03125 599.8757 134.82812Q599.1569 135.625 597.9382 135.625Q596.7194 135.625 595.9538 134.6875Q595.2038 133.73438 595.2038 132.25L595.2038 131.84375Q595.2038 129.48438 596.2038 128.23438Q597.2038 126.984375 599.1882 126.96875L599.3913 126.96875ZM597.9694 130.8125Q597.4069 130.8125 596.9382 131.14062Q596.4694 131.46875 596.2819 131.98438L596.2819 132.375Q596.2819 133.4375 596.7507 134.07812Q597.23505 134.71875 597.9382 134.71875Q598.67255 134.71875 599.0944 134.1875Q599.5163 133.64062 599.5163 132.76562Q599.5163 131.89062 599.0944 131.35938Q598.67255 130.8125 597.9694 130.8125Z" fill-rule="nonzero"/><path fill="#000000" d="M575.7038 130.70312L576.5163 130.70312Q577.29755 130.6875 577.73505 130.29688Q578.17255 129.90625 578.17255 129.23438Q578.17255 127.734375 576.67255 127.734375Q575.9694 127.734375 575.54755 128.14062Q575.1413 128.54688 575.1413 129.20312L574.04755 129.20312Q574.04755 128.1875 574.7819 127.515625Q575.5319 126.84375 576.67255 126.84375Q577.8757 126.84375 578.5632 127.484375Q579.2507 128.125 579.2507 129.26562Q579.2507 129.82812 578.8913 130.34375Q578.5319 130.85938 577.9069 131.125Q578.61005 131.34375 578.98505 131.85938Q579.3757 132.375 579.3757 133.125Q579.3757 134.26562 578.6257 134.95312Q577.8757 135.625 576.67255 135.625Q575.48505 135.625 574.7194 134.96875Q573.9694 134.3125 573.9694 133.25L575.0632 133.25Q575.0632 133.92188 575.5007 134.32812Q575.9382 134.73438 576.6882 134.73438Q577.4694 134.73438 577.8757 134.32812Q578.29755 133.90625 578.29755 133.14062Q578.29755 132.40625 577.8444 132.01562Q577.3913 131.60938 576.5163 131.59375L575.7038 131.59375L575.7038 130.70312ZM584.6882 135.5L583.61005 135.5L583.61005 128.28125L581.42255 129.07812L581.42255 128.09375L584.5319 126.921875L584.6882 126.921875L584.6882 135.5ZM593.48505 131.85938Q593.48505 133.76562 592.8288 134.70312Q592.1882 135.625 590.79755 135.625Q589.4382 135.625 588.7819 134.71875Q588.1257 133.8125 588.0944 132.0L588.0944 130.5625Q588.0944 128.67188 588.73505 127.765625Q589.3913 126.84375 590.7819 126.84375Q592.1569 126.84375 592.8132 127.734375Q593.4694 128.60938 593.48505 130.45312L593.48505 131.85938ZM592.3913 130.375Q592.3913 129.0 592.0007 128.375Q591.6257 127.734375 590.7819 127.734375Q589.9538 127.734375 589.5632 128.375Q589.1882 129.0 589.1882 130.29688L589.1882 132.03125Q589.1882 133.40625 589.5788 134.07812Q589.98505 134.73438 590.79755 134.73438Q591.5944 134.73438 591.98505 134.10938Q592.3757 133.48438 592.3913 132.15625L592.3913 130.375ZM599.3913 126.96875L599.3913 127.875L599.1882 127.875Q597.92255 127.90625 597.17255 128.64062Q596.42255 129.35938 596.29755 130.67188Q596.98505 129.90625 598.1413 129.90625Q599.2507 129.90625 599.92255 130.6875Q600.5944 131.46875 600.5944 132.71875Q600.5944 134.03125 599.8757 134.82812Q599.1569 135.625 597.9382 135.625Q596.7194 135.625 595.9538 134.6875Q595.2038 133.73438 595.2038 132.25L595.2038 131.84375Q595.2038 129.48438 596.2038 128.23438Q597.2038 126.984375 599.1882 126.96875L599.3913 126.96875ZM597.9694 130.8125Q597.4069 130.8125 596.9382 131.14062Q596.4694 131.46875 596.2819 131.98438L596.2819 132.375Q596.2819 133.4375 596.7507 134.07812Q597.23505 134.71875 597.9382 134.71875Q598.67255 134.71875 599.0944 134.1875Q599.5163 133.64062 599.5163 132.76562Q599.5163 131.89062 599.0944 131.35938Q598.67255 130.8125 597.9694 130.8125Z" fill-rule="nonzero"/><path stroke="#6fa8dc" stroke-width="3.0" stroke-linejoin="round" stroke-linecap="round" d="M576.2905 229.70312L577.103 229.70312Q577.8843 229.6875 578.3218 229.29688Q578.7593 228.90625 578.7593 228.23438Q578.7593 226.73438 577.2593 226.73438Q576.55615 226.73438 576.1343 227.14062Q575.728 227.54688 575.728 228.20312L574.6343 228.20312Q574.6343 227.1875 575.36865 226.51562Q576.11865 225.84375 577.2593 225.84375Q578.4624 225.84375 579.1499 226.48438Q579.8374 227.125 579.8374 228.26562Q579.8374 228.82812 579.478 229.34375Q579.11865 229.85938 578.49365 230.125Q579.1968 230.34375 579.5718 230.85938Q579.9624 231.375 579.9624 232.125Q579.9624 233.26562 579.2124 233.95312Q578.4624 234.625 577.2593 234.625Q576.0718 234.625 575.30615 233.96875Q574.55615 233.3125 574.55615 232.25L575.6499 232.25Q575.6499 232.92188 576.0874 233.32812Q576.5249 233.73438 577.2749 233.73438Q578.05615 233.73438 578.4624 233.32812Q578.8843 232.90625 578.8843 232.14062Q578.8843 231.40625 578.43115 231.01562Q577.978 230.60938 577.103 230.59375L576.2905 230.59375L576.2905 229.70312ZM585.2749 234.5L584.1968 234.5L584.1968 227.28125L582.0093 228.07812L582.0093 227.09375L585.11865 225.92188L585.2749 225.92188L585.2749 234.5ZM592.2749 234.5L591.1968 234.5L591.1968 227.28125L589.0093 228.07812L589.0093 227.09375L592.11865 225.92188L592.2749 225.92188L592.2749 234.5ZM601.0718 230.85938Q601.0718 232.76562 600.4155 233.70312Q599.7749 234.625 598.3843 234.625Q597.0249 234.625 596.36865 233.71875Q595.7124 232.8125 595.68115 231.0L595.68115 229.5625Q595.68115 227.67188 596.3218 226.76562Q596.978 225.84375 598.36865 225.84375Q599.74365 225.84375 600.3999 226.73438Q601.05615 227.60938 601.0718 229.45312L601.0718 230.85938ZM599.978 229.375Q599.978 228.0 599.5874 227.375Q599.2124 226.73438 598.36865 226.73438Q597.5405 226.73438 597.1499 227.375Q596.7749 228.0 596.7749 229.29688L596.7749 231.03125Q596.7749 232.40625 597.1655 233.07812Q597.5718 233.73438 598.3843 233.73438Q599.18115 233.73438 599.5718 233.10938Q599.9624 232.48438 599.978 231.15625L599.978 229.375Z" fill-rule="nonzero"/><path fill="#000000" d="M576.2905 229.70312L577.103 229.70312Q577.8843 229.6875 578.3218 229.29688Q578.7593 228.90625 578.7593 228.23438Q578.7593 226.73438 577.2593 226.73438Q576.55615 226.73438 576.1343 227.14062Q575.728 227.54688 575.728 228.20312L574.6343 228.20312Q574.6343 227.1875 575.36865 226.51562Q576.11865 225.84375 577.2593 225.84375Q578.4624 225.84375 579.1499 226.48438Q579.8374 227.125 579.8374 228.26562Q579.8374 228.82812 579.478 229.34375Q579.11865 229.85938 578.49365 230.125Q579.1968 230.34375 579.5718 230.85938Q579.9624 231.375 579.9624 232.125Q579.9624 233.26562 579.2124 233.95312Q578.4624 234.625 577.2593 234.625Q576.0718 234.625 575.30615 233.96875Q574.55615 233.3125 574.55615 232.25L575.6499 232.25Q575.6499 232.92188 576.0874 233.32812Q576.5249 233.73438 577.2749 233.73438Q578.05615 233.73438 578.4624 233.32812Q578.8843 232.90625 578.8843 232.14062Q578.8843 231.40625 578.43115 231.01562Q577.978 230.60938 577.103 230.59375L576.2905 230.59375L576.2905 229.70312ZM585.2749 234.5L584.1968 234.5L584.1968 227.28125L582.0093 228.07812L582.0093 227.09375L585.11865 225.92188L585.2749 225.92188L585.2749 234.5ZM592.2749 234.5L591.1968 234.5L591.1968 227.28125L589.0093 228.07812L589.0093 227.09375L592.11865 225.92188L592.2749 225.92188L592.2749 234.5ZM601.0718 230.85938Q601.0718 232.76562 600.4155 233.70312Q599.7749 234.625 598.3843 234.625Q597.0249 234.625 596.36865 233.71875Q595.7124 232.8125 595.68115 231.0L595.68115 229.5625Q595.68115 227.67188 596.3218 226.76562Q596.978 225.84375 598.36865 225.84375Q599.74365 225.84375 600.3999 226.73438Q601.05615 227.60938 601.0718 229.45312L601.0718 230.85938ZM599.978 229.375Q599.978 228.0 599.5874 227.375Q599.2124 226.73438 598.36865 226.73438Q597.5405 226.73438 597.1499 227.375Q596.7749 228.0 596.7749 229.29688L596.7749 231.03125Q596.7749 232.40625 597.1655 233.07812Q597.5718 233.73438 598.3843 233.73438Q599.18115 233.73438 599.5718 233.10938Q599.9624 232.48438 599.978 231.15625L599.978 229.375Z" fill-rule="nonzero"/><path stroke="#6fa8dc" stroke-width="3.0" stroke-linejoin="round" stroke-linecap="round" d="M569.3968 329.70312L570.2093 329.70312Q570.99054 329.6875 571.42804 329.29688Q571.86554 328.90625 571.86554 328.23438Q571.86554 326.73438 570.36554 326.73438Q569.6624 326.73438 569.24054 327.14062Q568.8343 327.54688 568.8343 328.20312L567.74054 328.20312Q567.74054 327.1875 568.4749 326.51562Q569.2249 325.84375 570.36554 325.84375Q571.56866 325.84375 572.25616 326.48438Q572.94366 327.125 572.94366 328.26562Q572.94366 328.82812 572.5843 329.34375Q572.2249 329.85938 571.5999 330.125Q572.30304 330.34375 572.67804 330.85938Q573.06866 331.375 573.06866 332.125Q573.06866 333.26562 572.31866 333.95312Q571.56866 334.625 570.36554 334.625Q569.17804 334.625 568.4124 333.96875Q567.6624 333.3125 567.6624 332.25L568.75616 332.25Q568.75616 332.92188 569.19366 333.32812Q569.63116 333.73438 570.38116 333.73438Q571.1624 333.73438 571.56866 333.32812Q571.99054 332.90625 571.99054 332.14062Q571.99054 331.40625 571.5374 331.01562Q571.0843 330.60938 570.2093 330.59375L569.3968 330.59375L569.3968 329.70312ZM580.17804 330.85938Q580.17804 332.76562 579.5218 333.70312Q578.88116 334.625 577.49054 334.625Q576.13116 334.625 575.4749 333.71875Q574.81866 332.8125 574.7874 331.0L574.7874 329.5625Q574.7874 327.67188 575.42804 326.76562Q576.0843 325.84375 577.4749 325.84375Q578.8499 325.84375 579.50616 326.73438Q580.1624 327.60938 580.17804 329.45312L580.17804 330.85938ZM579.0843 329.375Q579.0843 328.0 578.69366 327.375Q578.31866 326.73438 577.4749 326.73438Q576.6468 326.73438 576.25616 327.375Q575.88116 328.0 575.88116 329.29688L575.88116 331.03125Q575.88116 332.40625 576.2718 333.07812Q576.67804 333.73438 577.49054 333.73438Q578.2874 333.73438 578.67804 333.10938Q579.06866 332.48438 579.0843 331.15625L579.0843 329.375ZM586.0843 325.96875L586.0843 326.875L585.88116 326.875Q584.61554 326.90625 583.86554 327.64062Q583.11554 328.35938 582.99054 329.67188Q583.67804 328.90625 584.8343 328.90625Q585.94366 328.90625 586.61554 329.6875Q587.2874 330.46875 587.2874 331.71875Q587.2874 333.03125 586.56866 333.82812Q585.8499 334.625 584.63116 334.625Q583.4124 334.625 582.6468 333.6875Q581.8968 332.73438 581.8968 331.25L581.8968 330.84375Q581.8968 328.48438 582.8968 327.23438Q583.8968 325.98438 585.88116 325.96875L586.0843 325.96875ZM584.6624 329.8125Q584.0999 329.8125 583.63116 330.14062Q583.1624 330.46875 582.9749 330.98438L582.9749 331.375Q582.9749 332.4375 583.44366 333.07812Q583.92804 333.71875 584.63116 333.71875Q585.36554 333.71875 585.7874 333.1875Q586.2093 332.64062 586.2093 331.76562Q586.2093 330.89062 585.7874 330.35938Q585.36554 329.8125 584.6624 329.8125ZM590.3968 329.70312L591.2093 329.70312Q591.99054 329.6875 592.42804 329.29688Q592.86554 328.90625 592.86554 328.23438Q592.86554 326.73438 591.36554 326.73438Q590.6624 326.73438 590.24054 327.14062Q589.8343 327.54688 589.8343 328.20312L588.74054 328.20312Q588.74054 327.1875 589.4749 326.51562Q590.2249 325.84375 591.36554 325.84375Q592.56866 325.84375 593.25616 326.48438Q593.94366 327.125 593.94366 328.26562Q593.94366 328.82812 593.5843 329.34375Q593.2249 329.85938 592.5999 330.125Q593.30304 330.34375 593.67804 330.85938Q594.06866 331.375 594.06866 332.125Q594.06866 333.26562 593.31866 333.95312Q592.56866 334.625 591.36554 334.625Q590.17804 334.625 589.4124 333.96875Q588.6624 333.3125 588.6624 332.25L589.75616 332.25Q589.75616 332.92188 590.19366 333.32812Q590.63116 333.73438 591.38116 333.73438Q592.1624 333.73438 592.56866 333.32812Q592.99054 332.90625 592.99054 332.14062Q592.99054 331.40625 592.5374 331.01562Q592.0843 330.60938 591.2093 330.59375L590.3968 330.59375L590.3968 329.70312Z" fill-rule="nonzero"/><path fill="#000000" d="M569.3968 329.70312L570.2093 329.70312Q570.99054 329.6875 571.42804 329.29688Q571.86554 328.90625 571.86554 328.23438Q571.86554 326.73438 570.36554 326.73438Q569.6624 326.73438 569.24054 327.14062Q568.8343 327.54688 568.8343 328.20312L567.74054 328.20312Q567.74054 327.1875 568.4749 326.51562Q569.2249 325.84375 570.36554 325.84375Q571.56866 325.84375 572.25616 326.48438Q572.94366 327.125 572.94366 328.26562Q572.94366 328.82812 572.5843 329.34375Q572.2249 329.85938 571.5999 330.125Q572.30304 330.34375 572.67804 330.85938Q573.06866 331.375 573.06866 332.125Q573.06866 333.26562 572.31866 333.95312Q571.56866 334.625 570.36554 334.625Q569.17804 334.625 568.4124 333.96875Q567.6624 333.3125 567.6624 332.25L568.75616 332.25Q568.75616 332.92188 569.19366 333.32812Q569.63116 333.73438 570.38116 333.73438Q571.1624 333.73438 571.56866 333.32812Q571.99054 332.90625 571.99054 332.14062Q571.99054 331.40625 571.5374 331.01562Q571.0843 330.60938 570.2093 330.59375L569.3968 330.59375L569.3968 329.70312ZM580.17804 330.85938Q580.17804 332.76562 579.5218 333.70312Q578.88116 334.625 577.49054 334.625Q576.13116 334.625 575.4749 333.71875Q574.81866 332.8125 574.7874 331.0L574.7874 329.5625Q574.7874 327.67188 575.42804 326.76562Q576.0843 325.84375 577.4749 325.84375Q578.8499 325.84375 579.50616 326.73438Q580.1624 327.60938 580.17804 329.45312L580.17804 330.85938ZM579.0843 329.375Q579.0843 328.0 578.69366 327.375Q578.31866 326.73438 577.4749 326.73438Q576.6468 326.73438 576.25616 327.375Q575.88116 328.0 575.88116 329.29688L575.88116 331.03125Q575.88116 332.40625 576.2718 333.07812Q576.67804 333.73438 577.49054 333.73438Q578.2874 333.73438 578.67804 333.10938Q579.06866 332.48438 579.0843 331.15625L579.0843 329.375ZM586.0843 325.96875L586.0843 326.875L585.88116 326.875Q584.61554 326.90625 583.86554 327.64062Q583.11554 328.35938 582.99054 329.67188Q583.67804 328.90625 584.8343 328.90625Q585.94366 328.90625 586.61554 329.6875Q587.2874 330.46875 587.2874 331.71875Q587.2874 333.03125 586.56866 333.82812Q585.8499 334.625 584.63116 334.625Q583.4124 334.625 582.6468 333.6875Q581.8968 332.73438 581.8968 331.25L581.8968 330.84375Q581.8968 328.48438 582.8968 327.23438Q583.8968 325.98438 585.88116 325.96875L586.0843 325.96875ZM584.6624 329.8125Q584.0999 329.8125 583.63116 330.14062Q583.1624 330.46875 582.9749 330.98438L582.9749 331.375Q582.9749 332.4375 583.44366 333.07812Q583.92804 333.71875 584.63116 333.71875Q585.36554 333.71875 585.7874 333.1875Q586.2093 332.64062 586.2093 331.76562Q586.2093 330.89062 585.7874 330.35938Q585.36554 329.8125 584.6624 329.8125ZM590.3968 329.70312L591.2093 329.70312Q591.99054 329.6875 592.42804 329.29688Q592.86554 328.90625 592.86554 328.23438Q592.86554 326.73438 591.36554 326.73438Q590.6624 326.73438 590.24054 327.14062Q589.8343 327.54688 589.8343 328.20312L588.74054 328.20312Q588.74054 327.1875 589.4749 326.51562Q590.2249 325.84375 591.36554 325.84375Q592.56866 325.84375 593.25616 326.48438Q593.94366 327.125 593.94366 328.26562Q593.94366 328.82812 593.5843 329.34375Q593.2249 329.85938 592.5999 330.125Q593.30304 330.34375 593.67804 330.85938Q594.06866 331.375 594.06866 332.125Q594.06866 333.26562 593.31866 333.95312Q592.56866 334.625 591.36554 334.625Q590.17804 334.625 589.4124 333.96875Q588.6624 333.3125 588.6624 332.25L589.75616 332.25Q589.75616 332.92188 590.19366 333.32812Q590.63116 333.73438 591.38116 333.73438Q592.1624 333.73438 592.56866 333.32812Q592.99054 332.90625 592.99054 332.14062Q592.99054 331.40625 592.5374 331.01562Q592.0843 330.60938 591.2093 330.59375L590.3968 330.59375L590.3968 329.70312Z" fill-rule="nonzero"/><path fill="#000000" d="M392.89062 446.35L392.89062 437.75626L394.60938 437.75626L396.64062 443.83438Q396.92188 444.69376 397.04688 445.11563Q397.1875 444.64688 397.5 443.74063L399.5625 437.75626L401.09375 437.75626L401.09375 446.35L400.0 446.35L400.0 439.1625L397.5 446.35L396.46875 446.35L393.98438 439.0375L393.98438 446.35L392.89062 446.35ZM406.04688 444.35L407.14062 444.475Q406.89062 445.42813 406.1875 445.95938Q405.48438 446.49063 404.40625 446.49063Q403.04688 446.49063 402.23438 445.64688Q401.4375 444.80313 401.4375 443.2875Q401.4375 441.725 402.25 440.86563Q403.0625 439.99063 404.34375 439.99063Q405.59375 439.99063 406.375 440.83438Q407.17188 441.67813 407.17188 443.225Q407.17188 443.31876 407.17188 443.50626L402.53125 443.50626Q402.59375 444.5375 403.10938 445.08438Q403.625 445.61563 404.40625 445.61563Q404.98438 445.61563 405.39062 445.31876Q405.8125 445.00626 406.04688 444.35ZM402.59375 442.64688L406.0625 442.64688Q406.0 441.85 405.67188 441.45938Q405.15625 440.85 404.35938 440.85Q403.625 440.85 403.125 441.33438Q402.64062 441.81876 402.59375 442.64688ZM408.79688 446.35L408.79688 440.13126L409.73438 440.13126L409.73438 441.00626Q410.03125 440.5375 410.51562 440.27188Q411.0 439.99063 411.625 439.99063Q412.3125 439.99063 412.75 440.27188Q413.20312 440.55313 413.375 441.06876Q414.125 439.99063 415.29688 439.99063Q416.23438 439.99063 416.71875 440.50626Q417.21875 441.00626 417.21875 442.08438L417.21875 446.35L416.17188 446.35L416.17188 442.42813Q416.17188 441.80313 416.0625 441.52188Q415.96875 441.24063 415.70312 441.06876Q415.4375 440.89688 415.0625 440.89688Q414.40625 440.89688 413.96875 441.33438Q413.54688 441.77188 413.54688 442.74063L413.54688 446.35L412.48438 446.35L412.48438 442.30313Q412.48438 441.6 412.21875 441.25626Q411.96875 440.89688 411.39062 440.89688Q410.9375 440.89688 410.5625 441.13126Q410.1875 441.36563 410.01562 441.81876Q409.84375 442.27188 409.84375 443.11563L409.84375 446.35L408.79688 446.35ZM419.40625 443.24063Q419.40625 441.50626 420.35938 440.67813Q421.15625 439.99063 422.3125 439.99063Q423.59375 439.99063 424.40625 440.83438Q425.23438 441.6625 425.23438 443.14688Q425.23438 444.35 424.875 445.0375Q424.51562 445.725 423.8125 446.11563Q423.125 446.49063 422.3125 446.49063Q421.01562 446.49063 420.20312 445.6625Q419.40625 444.81876 419.40625 443.24063ZM420.48438 443.24063Q420.48438 444.42813 421.0 445.02188Q421.53125 445.61563 422.3125 445.61563Q423.10938 445.61563 423.625 445.02188Q424.14062 444.42813 424.14062 443.20938Q424.14062 442.05313 423.60938 441.45938Q423.09375 440.86563 422.3125 440.86563Q421.53125 440.86563 421.0 441.45938Q420.48438 442.0375 420.48438 443.24063ZM426.78125 446.35L426.78125 440.13126L427.73438 440.13126L427.73438 441.06876Q428.09375 440.4125 428.39062 440.20938Q428.70312 439.99063 429.07812 439.99063Q429.60938 439.99063 430.15625 440.31876L429.79688 441.30313Q429.40625 441.06876 429.03125 441.06876Q428.67188 441.06876 428.39062 441.2875Q428.125 441.49063 428.01562 441.86563Q427.82812 442.42813 427.82812 443.08438L427.82812 446.35L426.78125 446.35ZM430.75 448.74063L430.625 447.75626Q430.96875 447.85 431.23438 447.85Q431.57812 447.85 431.78125 447.725Q432.0 447.61563 432.14062 447.4125Q432.23438 447.24063 432.46875 446.61563Q432.48438 446.5375 432.5625 446.36563L430.1875 440.13126L431.32812 440.13126L432.625 443.725Q432.875 444.4125 433.07812 445.17813Q433.26562 444.44376 433.51562 443.75626L434.84375 440.13126L435.89062 440.13126L433.53125 446.45938Q433.14062 447.475 432.9375 447.86563Q432.65625 448.39688 432.28125 448.63126Q431.92188 448.88126 431.42188 448.88126Q431.125 448.88126 430.75 448.74063ZM444.5625 437.75626L445.70312 437.75626L445.70312 442.725Q445.70312 444.02188 445.40625 444.7875Q445.10938 445.5375 444.34375 446.02188Q443.57812 446.49063 442.34375 446.49063Q441.14062 446.49063 440.35938 446.08438Q439.59375 445.6625 439.26562 444.88126Q438.9375 444.08438 438.9375 442.725L438.9375 437.75626L440.07812 437.75626L440.07812 442.70938Q440.07812 443.83438 440.28125 444.36563Q440.5 444.89688 441.0 445.19376Q441.51562 445.475 442.25 445.475Q443.5 445.475 444.03125 444.9125Q444.5625 444.33438 444.5625 442.70938L444.5625 437.75626ZM447.375 444.49063L448.40625 444.33438Q448.5 444.95938 448.89062 445.2875Q449.29688 445.61563 450.03125 445.61563Q450.75 445.61563 451.09375 445.33438Q451.45312 445.0375 451.45312 444.63126Q451.45312 444.27188 451.14062 444.06876Q450.92188 443.92813 450.0625 443.70938Q448.90625 443.4125 448.45312 443.20938Q448.01562 442.99063 447.78125 442.61563Q447.54688 442.24063 447.54688 441.77188Q447.54688 441.36563 447.73438 441.00626Q447.92188 440.64688 448.25 440.4125Q448.5 440.24063 448.92188 440.11563Q449.34375 439.99063 449.84375 439.99063Q450.5625 439.99063 451.10938 440.20938Q451.67188 440.4125 451.9375 440.77188Q452.20312 441.13126 452.29688 441.725L451.26562 441.86563Q451.20312 441.39688 450.85938 441.13126Q450.53125 440.85 449.90625 440.85Q449.1875 440.85 448.875 441.1Q448.5625 441.33438 448.5625 441.6625Q448.5625 441.86563 448.6875 442.02188Q448.82812 442.19376 449.09375 442.30313Q449.25 442.36563 450.03125 442.56876Q451.15625 442.88126 451.59375 443.06876Q452.03125 443.25626 452.28125 443.61563Q452.53125 443.975 452.53125 444.52188Q452.53125 445.05313 452.21875 445.52188Q451.92188 445.975 451.34375 446.24063Q450.76562 446.49063 450.03125 446.49063Q448.8125 446.49063 448.17188 445.99063Q447.54688 445.475 447.375 444.49063ZM459.04688 444.35L460.14062 444.475Q459.89062 445.42813 459.1875 445.95938Q458.48438 446.49063 457.40625 446.49063Q456.04688 446.49063 455.23438 445.64688Q454.4375 444.80313 454.4375 443.2875Q454.4375 441.725 455.25 440.86563Q456.0625 439.99063 457.34375 439.99063Q458.59375 439.99063 459.375 440.83438Q460.17188 441.67813 460.17188 443.225Q460.17188 443.31876 460.17188 443.50626L455.53125 443.50626Q455.59375 444.5375 456.10938 445.08438Q456.625 445.61563 457.40625 445.61563Q457.98438 445.61563 458.39062 445.31876Q458.8125 445.00626 459.04688 444.35ZM455.59375 442.64688L459.0625 442.64688Q459.0 441.85 458.67188 441.45938Q458.15625 440.85 457.35938 440.85Q456.625 440.85 456.125 441.33438Q455.64062 441.81876 455.59375 442.64688ZM465.82812 446.35L465.82812 445.56876Q465.23438 446.49063 464.09375 446.49063Q463.34375 446.49063 462.71875 446.08438Q462.09375 445.6625 461.75 444.92813Q461.40625 444.19376 461.40625 443.24063Q461.40625 442.31876 461.71875 441.55313Q462.03125 440.7875 462.65625 440.39688Q463.28125 439.99063 464.04688 439.99063Q464.60938 439.99063 465.04688 440.225Q465.48438 440.45938 465.76562 440.83438L465.76562 437.75626L466.8125 437.75626L466.8125 446.35L465.82812 446.35ZM462.5 443.24063Q462.5 444.44376 463.0 445.0375Q463.5 445.61563 464.1875 445.61563Q464.875 445.61563 465.35938 445.05313Q465.84375 444.49063 465.84375 443.33438Q465.84375 442.05313 465.34375 441.45938Q464.85938 440.86563 464.14062 440.86563Q463.4375 440.86563 462.96875 441.44376Q462.5 442.00626 462.5 443.24063ZM473.8125 448.88126Q472.9375 447.77188 472.32812 446.30313Q471.73438 444.81876 471.73438 443.24063Q471.73438 441.85 472.17188 440.56876Q472.70312 439.08438 473.8125 437.61563L474.5625 437.61563Q473.85938 438.83438 473.625 439.35Q473.26562 440.1625 473.0625 441.0375Q472.8125 442.13126 472.8125 443.24063Q472.8125 446.06876 474.5625 448.88126L473.8125 448.88126ZM475.89062 446.35L475.89062 437.75626L477.60938 437.75626L479.64062 443.83438Q479.92188 444.69376 480.04688 445.11563Q480.1875 444.64688 480.5 443.74063L482.5625 437.75626L484.09375 437.75626L484.09375 446.35L483.0 446.35L483.0 439.1625L480.5 446.35L479.46875 446.35L476.98438 439.0375L476.98438 446.35L475.89062 446.35ZM484.875 446.35L484.875 437.75626L488.10938 437.75626Q489.09375 437.75626 489.6875 438.02188Q490.28125 438.2875 490.60938 438.83438Q490.95312 439.36563 490.95312 439.95938Q490.95312 440.50626 490.65625 440.99063Q490.35938 441.475 489.75 441.77188Q490.53125 442.00626 490.9375 442.56876Q491.35938 443.11563 491.35938 443.86563Q491.35938 444.45938 491.10938 444.99063Q490.85938 445.50626 490.48438 445.7875Q490.10938 446.06876 489.53125 446.20938Q488.96875 446.35 488.15625 446.35L484.875 446.35ZM486.01562 441.36563L487.875 441.36563Q488.625 441.36563 488.95312 441.27188Q489.39062 441.14688 489.60938 440.85Q489.82812 440.5375 489.82812 440.08438Q489.82812 439.6625 489.625 439.33438Q489.42188 439.00626 489.03125 438.89688Q488.65625 438.77188 487.73438 438.77188L486.01562 438.77188L486.01562 441.36563ZM486.01562 445.33438L488.15625 445.33438Q488.70312 445.33438 488.92188 445.2875Q489.32812 445.225 489.57812 445.06876Q489.84375 444.89688 490.01562 444.58438Q490.1875 444.27188 490.1875 443.86563Q490.1875 443.38126 489.9375 443.02188Q489.70312 442.6625 489.26562 442.52188Q488.82812 442.38126 488.0 442.38126L486.01562 442.38126L486.01562 445.33438ZM493.48438 448.88126L492.73438 448.88126Q494.48438 446.06876 494.48438 443.24063Q494.48438 442.14688 494.23438 441.05313Q494.03125 440.17813 493.67188 439.36563Q493.4375 438.85 492.73438 437.61563L493.48438 437.61563Q494.57812 439.08438 495.10938 440.56876Q495.5625 441.85 495.5625 443.24063Q495.5625 444.81876 494.95312 446.30313Q494.34375 447.77188 493.48438 448.88126Z" fill-rule="nonzero"/><path fill="#000000" d="M37.525 134.70174L37.525 126.10799L40.759377 126.10799Q41.74375 126.10799 42.3375 126.37361Q42.93125 126.63924 43.259377 127.18611Q43.603127 127.71736 43.603127 128.31111Q43.603127 128.85799 43.30625 129.34236Q43.009377 129.82674 42.4 130.12361Q43.18125 130.35799 43.5875 130.92049Q44.009377 131.46736 44.009377 132.21736Q44.009377 132.81111 43.759377 133.34236Q43.509377 133.85799 43.134377 134.13924Q42.759377 134.42049 42.18125 134.56111Q41.61875 134.70174 40.80625 134.70174L37.525 134.70174ZM38.665627 129.71736L40.525 129.71736Q41.275 129.71736 41.603127 129.62361Q42.040627 129.49861 42.259377 129.20174Q42.478127 128.88924 42.478127 128.43611Q42.478127 128.01424 42.275 127.68611Q42.071877 127.35799 41.68125 127.24861Q41.30625 127.12361 40.384377 127.12361L38.665627 127.12361L38.665627 129.71736ZM38.665627 133.68611L40.80625 133.68611Q41.353127 133.68611 41.571877 133.63924Q41.978127 133.57674 42.228127 133.42049Q42.49375 133.24861 42.665627 132.93611Q42.8375 132.62361 42.8375 132.21736Q42.8375 131.73299 42.5875 131.37361Q42.353127 131.01424 41.915627 130.87361Q41.478127 130.73299 40.65 130.73299L38.665627 130.73299L38.665627 133.68611ZM49.509377 133.93611Q48.915627 134.43611 48.36875 134.63924Q47.8375 134.84236 47.2125 134.84236Q46.18125 134.84236 45.634377 134.34236Q45.0875 133.84236 45.0875 133.06111Q45.0875 132.60799 45.290627 132.23299Q45.49375 131.84236 45.8375 131.62361Q46.18125 131.38924 46.603127 131.27986Q46.9 131.18611 47.540627 131.10799Q48.80625 130.96736 49.415627 130.74861Q49.415627 130.52986 49.415627 130.48299Q49.415627 129.82674 49.11875 129.56111Q48.7125 129.21736 47.915627 129.21736Q47.18125 129.21736 46.821877 129.48299Q46.4625 129.73299 46.290627 130.38924L45.259377 130.24861Q45.4 129.59236 45.728127 129.18611Q46.05625 128.77986 46.665627 128.56111Q47.275 128.34236 48.071877 128.34236Q48.86875 128.34236 49.36875 128.52986Q49.86875 128.71736 50.103127 128.99861Q50.3375 129.27986 50.43125 129.71736Q50.478127 129.98299 50.478127 130.68611L50.478127 132.09236Q50.478127 133.56111 50.540627 133.95174Q50.61875 134.34236 50.821877 134.70174L49.7125 134.70174Q49.55625 134.37361 49.509377 133.93611ZM49.415627 131.57674Q48.8375 131.81111 47.696877 131.98299Q47.040627 132.07674 46.775 132.20174Q46.509377 132.31111 46.353127 132.52986Q46.2125 132.74861 46.2125 133.02986Q46.2125 133.45174 46.525 133.73299Q46.853127 134.01424 47.4625 134.01424Q48.071877 134.01424 48.540627 133.74861Q49.025 133.48299 49.24375 133.01424Q49.415627 132.65486 49.415627 131.96736L49.415627 131.57674ZM52.025 132.84236L53.05625 132.68611Q53.15 133.31111 53.540627 133.63924Q53.946877 133.96736 54.68125 133.96736Q55.4 133.96736 55.74375 133.68611Q56.103127 133.38924 56.103127 132.98299Q56.103127 132.62361 55.790627 132.42049Q55.571877 132.27986 54.7125 132.06111Q53.55625 131.76424 53.103127 131.56111Q52.665627 131.34236 52.43125 130.96736Q52.196877 130.59236 52.196877 130.12361Q52.196877 129.71736 52.384377 129.35799Q52.571877 128.99861 52.9 128.76424Q53.15 128.59236 53.571877 128.46736Q53.99375 128.34236 54.49375 128.34236Q55.2125 128.34236 55.759377 128.56111Q56.321877 128.76424 56.5875 129.12361Q56.853127 129.48299 56.946877 130.07674L55.915627 130.21736Q55.853127 129.74861 55.509377 129.48299Q55.18125 129.20174 54.55625 129.20174Q53.8375 129.20174 53.525 129.45174Q53.2125 129.68611 53.2125 130.01424Q53.2125 130.21736 53.3375 130.37361Q53.478127 130.54549 53.74375 130.65486Q53.9 130.71736 54.68125 130.92049Q55.80625 131.23299 56.24375 131.42049Q56.68125 131.60799 56.93125 131.96736Q57.18125 132.32674 57.18125 132.87361Q57.18125 133.40486 56.86875 133.87361Q56.571877 134.32674 55.99375 134.59236Q55.415627 134.84236 54.68125 134.84236Q53.4625 134.84236 52.821877 134.34236Q52.196877 133.82674 52.025 132.84236ZM63.696877 132.70174L64.79063 132.82674Q64.54063 133.77986 63.8375 134.31111Q63.134377 134.84236 62.05625 134.84236Q60.696877 134.84236 59.884377 133.99861Q59.0875 133.15486 59.0875 131.63924Q59.0875 130.07674 59.9 129.21736Q60.7125 128.34236 61.99375 128.34236Q63.24375 128.34236 64.025 129.18611Q64.82188 130.02986 64.82188 131.57674Q64.82188 131.67049 64.82188 131.85799L60.18125 131.85799Q60.24375 132.88924 60.759377 133.43611Q61.275 133.96736 62.05625 133.96736Q62.634377 133.96736 63.040627 133.67049Q63.4625 133.35799 63.696877 132.70174ZM60.24375 130.99861L63.7125 130.99861Q63.65 130.20174 63.321877 129.81111Q62.80625 129.20174 62.009377 129.20174Q61.275 129.20174 60.775 129.68611Q60.290627 130.17049 60.24375 130.99861ZM66.41563 134.70174L66.41563 126.10799L67.47813 126.10799L67.47813 134.70174L66.41563 134.70174ZM69.44688 127.32674L69.44688 126.10799L70.50938 126.10799L70.50938 127.32674L69.44688 127.32674ZM69.44688 134.70174L69.44688 128.48299L70.50938 128.48299L70.50938 134.70174L69.44688 134.70174ZM72.44688 134.70174L72.44688 128.48299L73.38438 128.48299L73.38438 129.35799Q74.07188 128.34236 75.36875 128.34236Q75.93125 128.34236 76.4 128.54549Q76.88438 128.74861 77.11875 129.07674Q77.35313 129.40486 77.44688 129.84236Q77.49375 130.13924 77.49375 130.87361L77.49375 134.70174L76.44688 134.70174L76.44688 130.92049Q76.44688 130.26424 76.32188 129.95174Q76.19688 129.63924 75.88438 129.45174Q75.57188 129.24861 75.15 129.24861Q74.47813 129.24861 73.97813 129.68611Q73.49375 130.10799 73.49375 131.29549L73.49375 134.70174L72.44688 134.70174ZM83.69688 132.70174L84.79063 132.82674Q84.54063 133.77986 83.8375 134.31111Q83.13438 134.84236 82.05625 134.84236Q80.69688 134.84236 79.88438 133.99861Q79.0875 133.15486 79.0875 131.63924Q79.0875 130.07674 79.9 129.21736Q80.7125 128.34236 81.99375 128.34236Q83.24375 128.34236 84.025 129.18611Q84.82188 130.02986 84.82188 131.57674Q84.82188 131.67049 84.82188 131.85799L80.18125 131.85799Q80.24375 132.88924 80.75938 133.43611Q81.275 133.96736 82.05625 133.96736Q82.63438 133.96736 83.04063 133.67049Q83.4625 133.35799 83.69688 132.70174ZM80.24375 130.99861L83.7125 130.99861Q83.65 130.20174 83.32188 129.81111Q82.80625 129.20174 82.00938 129.20174Q81.275 129.20174 80.775 129.68611Q80.29063 130.17049 80.24375 130.99861ZM89.5875 134.70174L89.5875 126.10799L93.4 126.10799Q94.55625 126.10799 95.15 126.34236Q95.74375 126.57674 96.10313 127.17049Q96.4625 127.74861 96.4625 128.45174Q96.4625 129.37361 95.86875 129.99861Q95.275 130.62361 94.04063 130.79549Q94.49375 131.01424 94.72813 131.21736Q95.22813 131.67049 95.66563 132.35799L97.16563 134.70174L95.72813 134.70174L94.60313 132.92049Q94.10313 132.13924 93.775 131.73299Q93.4625 131.32674 93.19688 131.17049Q92.94688 130.99861 92.68125 130.92049Q92.49375 130.88924 92.05625 130.88924L90.72813 130.88924L90.72813 134.70174L89.5875 134.70174ZM90.72813 129.90486L93.18125 129.90486Q93.94688 129.90486 94.38438 129.74861Q94.8375 129.57674 95.05625 129.23299Q95.29063 128.87361 95.29063 128.45174Q95.29063 127.84236 94.8375 127.45174Q94.4 127.06111 93.44688 127.06111L90.72813 127.06111L90.72813 129.90486ZM102.69688 132.70174L103.79063 132.82674Q103.54063 133.77986 102.8375 134.31111Q102.13438 134.84236 101.05625 134.84236Q99.69688 134.84236 98.88438 133.99861Q98.0875 133.15486 98.0875 131.63924Q98.0875 130.07674 98.9 129.21736Q99.7125 128.34236 100.99375 128.34236Q102.24375 128.34236 103.025 129.18611Q103.82188 130.02986 103.82188 131.57674Q103.82188 131.67049 103.82188 131.85799L99.18125 131.85799Q99.24375 132.88924 99.75938 133.43611Q100.275 133.96736 101.05625 133.96736Q101.63438 133.96736 102.04063 133.67049Q102.4625 133.35799 102.69688 132.70174ZM99.24375 130.99861L102.7125 130.99861Q102.65 130.20174 102.32188 129.81111Q101.80625 129.20174 101.00938 129.20174Q100.275 129.20174 99.775 129.68611Q99.29063 130.17049 99.24375 130.99861ZM105.025 132.84236L106.05625 132.68611Q106.15 133.31111 106.54063 133.63924Q106.94688 133.96736 107.68125 133.96736Q108.4 133.96736 108.74375 133.68611Q109.10313 133.38924 109.10313 132.98299Q109.10313 132.62361 108.79063 132.42049Q108.57188 132.27986 107.7125 132.06111Q106.55625 131.76424 106.10313 131.56111Q105.66563 131.34236 105.43125 130.96736Q105.19688 130.59236 105.19688 130.12361Q105.19688 129.71736 105.38438 129.35799Q105.57188 128.99861 105.9 128.76424Q106.15 128.59236 106.57188 128.46736Q106.99375 128.34236 107.49375 128.34236Q108.2125 128.34236 108.75938 128.56111Q109.32188 128.76424 109.5875 129.12361Q109.85313 129.48299 109.94688 130.07674L108.91563 130.21736Q108.85313 129.74861 108.50938 129.48299Q108.18125 129.20174 107.55625 129.20174Q106.8375 129.20174 106.525 129.45174Q106.2125 129.68611 106.2125 130.01424Q106.2125 130.21736 106.3375 130.37361Q106.47813 130.54549 106.74375 130.65486Q106.9 130.71736 107.68125 130.92049Q108.80625 131.23299 109.24375 131.42049Q109.68125 131.60799 109.93125 131.96736Q110.18125 132.32674 110.18125 132.87361Q110.18125 133.40486 109.86875 133.87361Q109.57188 134.32674 108.99375 134.59236Q108.41563 134.84236 107.68125 134.84236Q106.4625 134.84236 105.82188 134.34236Q105.19688 133.82674 105.025 132.84236ZM112.57188 134.70174L112.57188 126.10799L113.72813 126.10799L118.24375 132.85799L118.24375 126.10799L119.3375 126.10799L119.3375 134.70174L118.16563 134.70174L113.65 127.95174L113.65 134.70174L112.57188 134.70174ZM125.69688 132.70174L126.79063 132.82674Q126.54063 133.77986 125.8375 134.31111Q125.13438 134.84236 124.05625 134.84236Q122.69688 134.84236 121.88438 133.99861Q121.0875 133.15486 121.0875 131.63924Q121.0875 130.07674 121.9 129.21736Q122.7125 128.34236 123.99375 128.34236Q125.24375 128.34236 126.025 129.18611Q126.82188 130.02986 126.82188 131.57674Q126.82188 131.67049 126.82188 131.85799L122.18125 131.85799Q122.24375 132.88924 122.75938 133.43611Q123.275 133.96736 124.05625 133.96736Q124.63438 133.96736 125.04063 133.67049Q125.4625 133.35799 125.69688 132.70174ZM122.24375 130.99861L125.7125 130.99861Q125.65 130.20174 125.32188 129.81111Q124.80625 129.20174 124.00938 129.20174Q123.275 129.20174 122.775 129.68611Q122.29063 130.17049 122.24375 130.99861ZM130.74374 133.76424L130.9 134.68611Q130.44687 134.77986 130.10312 134.77986Q129.525 134.77986 129.2125 134.60799Q128.9 134.42049 128.75937 134.12361Q128.63437 133.82674 128.63437 132.87361L128.63437 129.29549L127.86875 129.29549L127.86875 128.48299L128.63437 128.48299L128.63437 126.93611L129.68124 126.31111L129.68124 128.48299L130.74374 128.48299L130.74374 129.29549L129.68124 129.29549L129.68124 132.93611Q129.68124 133.38924 129.72812 133.51424Q129.79062 133.63924 129.91562 133.71736Q130.04062 133.79549 130.275 133.79549Q130.4625 133.79549 130.74374 133.76424ZM135.11874 134.70174L134.07187 134.70174L134.07187 127.98299Q133.68124 128.34236 133.05624 128.71736Q132.44687 129.07674 131.9625 129.24861L131.9625 128.23299Q132.8375 127.81111 133.49374 127.23299Q134.16562 126.63924 134.44687 126.07674L135.11874 126.07674L135.11874 134.70174ZM139.775 130.04549Q139.11874 129.79549 138.79062 129.35799Q138.47812 128.90486 138.47812 128.29549Q138.47812 127.35799 139.15 126.71736Q139.8375 126.07674 140.94687 126.07674Q142.07187 126.07674 142.75937 126.73299Q143.44687 127.38924 143.44687 128.32674Q143.44687 128.92049 143.13437 129.35799Q142.82187 129.79549 142.18124 130.04549Q142.97812 130.29549 143.38437 130.87361Q143.79062 131.45174 143.79062 132.24861Q143.79062 133.34236 143.00937 134.09236Q142.24374 134.84236 140.9625 134.84236Q139.69687 134.84236 138.91562 134.09236Q138.13437 133.34236 138.13437 132.21736Q138.13437 131.37361 138.55624 130.81111Q138.99374 130.24861 139.775 130.04549ZM139.55624 128.24861Q139.55624 128.85799 139.94687 129.24861Q140.35312 129.63924 140.97812 129.63924Q141.5875 129.63924 141.97812 129.26424Q142.36874 128.87361 142.36874 128.31111Q142.36874 127.73299 141.9625 127.34236Q141.55624 126.93611 140.9625 126.93611Q140.35312 126.93611 139.94687 127.32674Q139.55624 127.71736 139.55624 128.24861ZM139.22812 132.21736Q139.22812 132.67049 139.43124 133.09236Q139.65 133.51424 140.07187 133.74861Q140.49374 133.98299 140.97812 133.98299Q141.72812 133.98299 142.2125 133.49861Q142.7125 133.01424 142.7125 132.26424Q142.7125 131.49861 142.2125 130.99861Q141.7125 130.49861 140.94687 130.49861Q140.19687 130.49861 139.7125 130.99861Q139.22812 131.48299 139.22812 132.21736Z" fill-rule="nonzero"/><path fill="#000000" d="M26.196875 231.6177L27.259375 231.52396Q27.3375 232.1802 27.61875 232.58646Q27.9 232.9927 28.478125 233.25833Q29.071875 233.50833 29.80625 233.50833Q30.446875 233.50833 30.946875 233.32083Q31.446875 233.1177 31.68125 232.78958Q31.93125 232.44583 31.93125 232.0552Q31.93125 231.64896 31.696875 231.35208Q31.4625 231.03958 30.93125 230.83646Q30.571875 230.69583 29.384375 230.41458Q28.2125 230.13333 27.74375 229.88333Q27.11875 229.5552 26.821875 229.08646Q26.525 228.60208 26.525 228.00833Q26.525 227.3677 26.884375 226.8052Q27.259375 226.22708 27.9625 225.94583Q28.68125 225.64896 29.540625 225.64896Q30.49375 225.64896 31.228125 225.96146Q31.9625 226.25833 32.353127 226.8677Q32.74375 227.46146 32.775 228.21146L31.68125 228.28958Q31.5875 227.47708 31.071875 227.07083Q30.571875 226.64896 29.5875 226.64896Q28.55625 226.64896 28.0875 227.02396Q27.61875 227.39896 27.61875 227.9302Q27.61875 228.39896 27.946875 228.69583Q28.275 228.9927 29.65 229.3052Q31.040625 229.6177 31.55625 229.85208Q32.30625 230.21146 32.665627 230.7427Q33.025 231.25833 33.025 231.96146Q33.025 232.64896 32.634377 233.25833Q32.24375 233.85208 31.509375 234.19583Q30.775 234.52396 29.853125 234.52396Q28.68125 234.52396 27.884375 234.19583Q27.103125 233.85208 26.65 233.16458Q26.2125 232.47708 26.196875 231.6177ZM34.446877 227.00833L34.446877 225.78958L35.509377 225.78958L35.509377 227.00833L34.446877 227.00833ZM34.446877 234.38333L34.446877 228.16458L35.509377 228.16458L35.509377 234.38333L34.446877 234.38333ZM37.446877 234.38333L37.446877 228.16458L38.384377 228.16458L38.384377 229.03958Q38.68125 228.57083 39.165627 228.3052Q39.65 228.02396 40.275 228.02396Q40.9625 228.02396 41.4 228.3052Q41.853127 228.58646 42.025 229.10208Q42.775 228.02396 43.946877 228.02396Q44.884377 228.02396 45.36875 228.53958Q45.86875 229.03958 45.86875 230.1177L45.86875 234.38333L44.821877 234.38333L44.821877 230.46146Q44.821877 229.83646 44.7125 229.5552Q44.61875 229.27396 44.353127 229.10208Q44.0875 228.9302 43.7125 228.9302Q43.05625 228.9302 42.61875 229.3677Q42.196877 229.8052 42.196877 230.77396L42.196877 234.38333L41.134377 234.38333L41.134377 230.33646Q41.134377 229.63333 40.86875 229.28958Q40.61875 228.9302 40.040627 228.9302Q39.5875 228.9302 39.2125 229.16458Q38.8375 229.39896 38.665627 229.85208Q38.49375 230.3052 38.49375 231.14896L38.49375 234.38333L37.446877 234.38333ZM48.446877 236.77396L48.446877 228.16458L49.4 228.16458L49.4 228.96146Q49.74375 228.4927 50.165627 228.25833Q50.603127 228.02396 51.2125 228.02396Q52.009377 228.02396 52.61875 228.4302Q53.228127 228.83646 53.525 229.58646Q53.8375 230.33646 53.8375 231.22708Q53.8375 232.1802 53.49375 232.94583Q53.165627 233.71146 52.509377 234.1177Q51.853127 234.52396 51.134377 234.52396Q50.603127 234.52396 50.18125 234.3052Q49.759377 234.07083 49.49375 233.7427L49.49375 236.77396L48.446877 236.77396ZM49.4 231.3052Q49.4 232.50833 49.884377 233.08646Q50.36875 233.64896 51.05625 233.64896Q51.759377 233.64896 52.259377 233.0552Q52.759377 232.46146 52.759377 231.21146Q52.759377 230.02396 52.275 229.44583Q51.790627 228.85208 51.103127 228.85208Q50.43125 228.85208 49.915627 229.47708Q49.4 230.10208 49.4 231.3052ZM55.415627 234.38333L55.415627 225.78958L56.478127 225.78958L56.478127 234.38333L55.415627 234.38333ZM62.696877 232.38333L63.790627 232.50833Q63.540627 233.46146 62.8375 233.9927Q62.134377 234.52396 61.05625 234.52396Q59.696877 234.52396 58.884377 233.6802Q58.0875 232.83646 58.0875 231.32083Q58.0875 229.75833 58.9 228.89896Q59.7125 228.02396 60.99375 228.02396Q62.24375 228.02396 63.025 228.8677Q63.821877 229.71146 63.821877 231.25833Q63.821877 231.35208 63.821877 231.53958L59.18125 231.53958Q59.24375 232.57083 59.759377 233.1177Q60.275 233.64896 61.05625 233.64896Q61.634377 233.64896 62.040627 233.35208Q62.4625 233.03958 62.696877 232.38333ZM59.24375 230.6802L62.7125 230.6802Q62.65 229.88333 62.321877 229.4927Q61.80625 228.88333 61.009377 228.88333Q60.275 228.88333 59.775 229.3677Q59.290627 229.85208 59.24375 230.6802ZM68.22813 230.19583Q68.22813 228.0552 69.36875 226.85208Q70.525 225.63333 72.3375 225.63333Q73.54063 225.63333 74.49375 226.21146Q75.44688 226.77396 75.94688 227.78958Q76.44688 228.8052 76.44688 230.10208Q76.44688 231.39896 75.91563 232.4302Q75.38438 233.46146 74.41563 233.9927Q73.4625 234.52396 72.3375 234.52396Q71.11875 234.52396 70.16563 233.94583Q69.2125 233.35208 68.7125 232.35208Q68.22813 231.33646 68.22813 230.19583ZM69.4 230.21146Q69.4 231.77396 70.22813 232.66458Q71.07188 233.5552 72.3375 233.5552Q73.61875 233.5552 74.44688 232.66458Q75.275 231.75833 75.275 230.08646Q75.275 229.03958 74.91563 228.25833Q74.57188 227.47708 73.88438 227.0552Q73.19688 226.6177 72.35313 226.6177Q71.15 226.6177 70.275 227.44583Q69.4 228.27396 69.4 230.21146ZM77.44688 236.77396L77.44688 228.16458L78.4 228.16458L78.4 228.96146Q78.74375 228.4927 79.16563 228.25833Q79.60313 228.02396 80.2125 228.02396Q81.00938 228.02396 81.61875 228.4302Q82.22813 228.83646 82.525 229.58646Q82.8375 230.33646 82.8375 231.22708Q82.8375 232.1802 82.49375 232.94583Q82.16563 233.71146 81.50938 234.1177Q80.85313 234.52396 80.13438 234.52396Q79.60313 234.52396 79.18125 234.3052Q78.75938 234.07083 78.49375 233.7427L78.49375 236.77396L77.44688 236.77396ZM78.4 231.3052Q78.4 232.50833 78.88438 233.08646Q79.36875 233.64896 80.05625 233.64896Q80.75938 233.64896 81.25938 233.0552Q81.75938 232.46146 81.75938 231.21146Q81.75938 230.02396 81.275 229.44583Q80.79063 228.85208 80.10313 228.85208Q79.43125 228.85208 78.91563 229.47708Q78.4 230.10208 78.4 231.3052ZM86.74375 233.44583L86.9 234.3677Q86.44688 234.46146 86.10313 234.46146Q85.525 234.46146 85.2125 234.28958Q84.9 234.10208 84.75938 233.8052Q84.63438 233.50833 84.63438 232.5552L84.63438 228.97708L83.86875 228.97708L83.86875 228.16458L84.63438 228.16458L84.63438 226.6177L85.68125 225.9927L85.68125 228.16458L86.74375 228.16458L86.74375 228.97708L85.68125 228.97708L85.68125 232.6177Q85.68125 233.07083 85.72813 233.19583Q85.79063 233.32083 85.91563 233.39896Q86.04063 233.47708 86.275 233.47708Q86.4625 233.47708 86.74375 233.44583ZM87.44688 227.00833L87.44688 225.78958L88.50938 225.78958L88.50938 227.00833L87.44688 227.00833ZM87.44688 234.38333L87.44688 228.16458L88.50938 228.16458L88.50938 234.38333L87.44688 234.38333ZM90.44688 234.38333L90.44688 228.16458L91.38438 228.16458L91.38438 229.03958Q91.68125 228.57083 92.16563 228.3052Q92.65 228.02396 93.275 228.02396Q93.9625 228.02396 94.4 228.3052Q94.85313 228.58646 95.025 229.10208Q95.775 228.02396 96.94688 228.02396Q97.88438 228.02396 98.36875 228.53958Q98.86875 229.03958 98.86875 230.1177L98.86875 234.38333L97.82188 234.38333L97.82188 230.46146Q97.82188 229.83646 97.7125 229.5552Q97.61875 229.27396 97.35313 229.10208Q97.0875 228.9302 96.7125 228.9302Q96.05625 228.9302 95.61875 229.3677Q95.19688 229.8052 95.19688 230.77396L95.19688 234.38333L94.13438 234.38333L94.13438 230.33646Q94.13438 229.63333 93.86875 229.28958Q93.61875 228.9302 93.04063 228.9302Q92.5875 228.9302 92.2125 229.16458Q91.8375 229.39896 91.66563 229.85208Q91.49375 230.3052 91.49375 231.14896L91.49375 234.38333L90.44688 234.38333ZM101.44688 227.00833L101.44688 225.78958L102.50938 225.78958L102.50938 227.00833L101.44688 227.00833ZM101.44688 234.38333L101.44688 228.16458L102.50938 228.16458L102.50938 234.38333L101.44688 234.38333ZM104.025 232.52396L105.05625 232.3677Q105.15 232.9927 105.54063 233.32083Q105.94688 233.64896 106.68125 233.64896Q107.4 233.64896 107.74375 233.3677Q108.10313 233.07083 108.10313 232.66458Q108.10313 232.3052 107.79063 232.10208Q107.57188 231.96146 106.7125 231.7427Q105.55625 231.44583 105.10313 231.2427Q104.66563 231.02396 104.43125 230.64896Q104.19688 230.27396 104.19688 229.8052Q104.19688 229.39896 104.38438 229.03958Q104.57188 228.6802 104.9 228.44583Q105.15 228.27396 105.57188 228.14896Q105.99375 228.02396 106.49375 228.02396Q107.2125 228.02396 107.75938 228.2427Q108.32188 228.44583 108.5875 228.8052Q108.85313 229.16458 108.94688 229.75833L107.91563 229.89896Q107.85313 229.4302 107.50938 229.16458Q107.18125 228.88333 106.55625 228.88333Q105.8375 228.88333 105.525 229.13333Q105.2125 229.3677 105.2125 229.69583Q105.2125 229.89896 105.3375 230.0552Q105.47813 230.22708 105.74375 230.33646Q105.9 230.39896 106.68125 230.60208Q107.80625 230.91458 108.24375 231.10208Q108.68125 231.28958 108.93125 231.64896Q109.18125 232.00833 109.18125 232.5552Q109.18125 233.08646 108.86875 233.5552Q108.57188 234.00833 107.99375 234.27396Q107.41563 234.52396 106.68125 234.52396Q105.4625 234.52396 104.82188 234.02396Q104.19688 233.50833 104.025 232.52396ZM115.50938 233.6177Q114.91563 234.1177 114.36875 234.32083Q113.8375 234.52396 113.2125 234.52396Q112.18125 234.52396 111.63438 234.02396Q111.0875 233.52396 111.0875 232.7427Q111.0875 232.28958 111.29063 231.91458Q111.49375 231.52396 111.8375 231.3052Q112.18125 231.07083 112.60313 230.96146Q112.9 230.8677 113.54063 230.78958Q114.80625 230.64896 115.41563 230.4302Q115.41563 230.21146 115.41563 230.16458Q115.41563 229.50833 115.11875 229.2427Q114.7125 228.89896 113.91563 228.89896Q113.18125 228.89896 112.82188 229.16458Q112.4625 229.41458 112.29063 230.07083L111.25938 229.9302Q111.4 229.27396 111.72813 228.8677Q112.05625 228.46146 112.66563 228.2427Q113.275 228.02396 114.07188 228.02396Q114.86875 228.02396 115.36875 228.21146Q115.86875 228.39896 116.10313 228.6802Q116.3375 228.96146 116.43125 229.39896Q116.47813 229.66458 116.47813 230.3677L116.47813 231.77396Q116.47813 233.2427 116.54063 233.63333Q116.61875 234.02396 116.82188 234.38333L115.7125 234.38333Q115.55625 234.0552 115.50938 233.6177ZM115.41563 231.25833Q114.8375 231.4927 113.69688 231.66458Q113.04063 231.75833 112.775 231.88333Q112.50938 231.9927 112.35313 232.21146Q112.2125 232.4302 112.2125 232.71146Q112.2125 233.13333 112.525 233.41458Q112.85313 233.69583 113.4625 233.69583Q114.07188 233.69583 114.54063 233.4302Q115.025 233.16458 115.24375 232.69583Q115.41563 232.33646 115.41563 231.64896L115.41563 231.25833ZM120.74375 233.44583L120.9 234.3677Q120.44688 234.46146 120.10313 234.46146Q119.525 234.46146 119.2125 234.28958Q118.9 234.10208 118.75938 233.8052Q118.63438 233.50833 118.63438 232.5552L118.63438 228.97708L117.86875 228.97708L117.86875 228.16458L118.63438 228.16458L118.63438 226.6177L119.68125 225.9927L119.68125 228.16458L120.74375 228.16458L120.74375 228.97708L119.68125 228.97708L119.68125 232.6177Q119.68125 233.07083 119.72813 233.19583Q119.79063 233.32083 119.91563 233.39896Q120.04063 233.47708 120.275 233.47708Q120.4625 233.47708 120.74375 233.44583ZM121.44688 227.00833L121.44688 225.78958L122.50938 225.78958L122.50938 227.00833L121.44688 227.00833ZM121.44688 234.38333L121.44688 228.16458L122.50938 228.16458L122.50938 234.38333L121.44688 234.38333ZM124.05625 231.27396Q124.05625 229.53958 125.00938 228.71146Q125.80625 228.02396 126.9625 228.02396Q128.24374 228.02396 129.05624 228.8677Q129.88437 229.69583 129.88437 231.1802Q129.88437 232.38333 129.525 233.07083Q129.16562 233.75833 128.4625 234.14896Q127.775 234.52396 126.9625 234.52396Q125.66563 234.52396 124.85313 233.69583Q124.05625 232.85208 124.05625 231.27396ZM125.13438 231.27396Q125.13438 232.46146 125.65 233.0552Q126.18125 233.64896 126.9625 233.64896Q127.75938 233.64896 128.275 233.0552Q128.79062 232.46146 128.79062 231.2427Q128.79062 230.08646 128.25937 229.4927Q127.74375 228.89896 126.9625 228.89896Q126.18125 228.89896 125.65 229.4927Q125.13438 230.07083 125.13438 231.27396ZM131.44687 234.38333L131.44687 228.16458L132.38437 228.16458L132.38437 229.03958Q133.07187 228.02396 134.36874 228.02396Q134.93124 228.02396 135.4 228.22708Q135.88437 228.4302 136.11874 228.75833Q136.35312 229.08646 136.44687 229.52396Q136.49374 229.82083 136.49374 230.5552L136.49374 234.38333L135.44687 234.38333L135.44687 230.60208Q135.44687 229.94583 135.32187 229.63333Q135.19687 229.32083 134.88437 229.13333Q134.57187 228.9302 134.15 228.9302Q133.47812 228.9302 132.97812 229.3677Q132.49374 229.78958 132.49374 230.97708L132.49374 234.38333L131.44687 234.38333ZM138.025 232.52396L139.05624 232.3677Q139.15 232.9927 139.54062 233.32083Q139.94687 233.64896 140.68124 233.64896Q141.4 233.64896 141.74374 233.3677Q142.10312 233.07083 142.10312 232.66458Q142.10312 232.3052 141.79062 232.10208Q141.57187 231.96146 140.7125 231.7427Q139.55624 231.44583 139.10312 231.2427Q138.66562 231.02396 138.43124 230.64896Q138.19687 230.27396 138.19687 229.8052Q138.19687 229.39896 138.38437 229.03958Q138.57187 228.6802 138.9 228.44583Q139.15 228.27396 139.57187 228.14896Q139.99374 228.02396 140.49374 228.02396Q141.2125 228.02396 141.75937 228.2427Q142.32187 228.44583 142.5875 228.8052Q142.85312 229.16458 142.94687 229.75833L141.91562 229.89896Q141.85312 229.4302 141.50937 229.16458Q141.18124 228.88333 140.55624 228.88333Q139.8375 228.88333 139.525 229.13333Q139.2125 229.3677 139.2125 229.69583Q139.2125 229.89896 139.3375 230.0552Q139.47812 230.22708 139.74374 230.33646Q139.9 230.39896 140.68124 230.60208Q141.80624 230.91458 142.24374 231.10208Q142.68124 231.28958 142.93124 231.64896Q143.18124 232.00833 143.18124 232.5552Q143.18124 233.08646 142.86874 233.5552Q142.57187 234.00833 141.99374 234.27396Q141.41562 234.52396 140.68124 234.52396Q139.4625 234.52396 138.82187 234.02396Q138.19687 233.50833 138.025 232.52396Z" fill-rule="nonzero"/><path fill="#000000" d="M24.540625 334.0649L24.540625 325.47116L26.259375 325.47116L28.290625 331.5493Q28.571875 332.40866 28.696875 332.83054Q28.8375 332.3618 29.15 331.45554L31.2125 325.47116L32.74375 325.47116L32.74375 334.0649L31.65 334.0649L31.65 326.8774L29.15 334.0649L28.11875 334.0649L25.634375 326.7524L25.634375 334.0649L24.540625 334.0649ZM33.446877 326.6899L33.446877 325.47116L34.509377 325.47116L34.509377 326.6899L33.446877 326.6899ZM33.446877 334.0649L33.446877 327.84616L34.509377 327.84616L34.509377 334.0649L33.446877 334.0649ZM35.74375 334.0649L38.009377 330.83054L35.915627 327.84616L37.228127 327.84616L38.18125 329.2993Q38.446877 329.72116 38.61875 330.0024Q38.86875 329.6118 39.0875 329.3149L40.134377 327.84616L41.4 327.84616L39.24375 330.76804L41.55625 334.0649L40.275 334.0649L38.99375 332.1274L38.65 331.6118L37.009377 334.0649L35.74375 334.0649ZM45.696877 332.0649L46.790627 332.1899Q46.540627 333.14304 45.8375 333.6743Q45.134377 334.20554 44.05625 334.20554Q42.696877 334.20554 41.884377 333.3618Q41.0875 332.51804 41.0875 331.0024Q41.0875 329.4399 41.9 328.58054Q42.7125 327.70554 43.99375 327.70554Q45.24375 327.70554 46.025 328.5493Q46.821877 329.39304 46.821877 330.9399Q46.821877 331.03366 46.821877 331.22116L42.18125 331.22116Q42.24375 332.2524 42.759377 332.7993Q43.275 333.33054 44.05625 333.33054Q44.634377 333.33054 45.040627 333.03366Q45.4625 332.72116 45.696877 332.0649ZM42.24375 330.3618L45.7125 330.3618Q45.65 329.5649 45.321877 329.1743Q44.80625 328.5649 44.009377 328.5649Q43.275 328.5649 42.775 329.0493Q42.290627 329.53366 42.24375 330.3618ZM52.478127 334.0649L52.478127 333.28366Q51.884377 334.20554 50.74375 334.20554Q49.99375 334.20554 49.36875 333.7993Q48.74375 333.3774 48.4 332.64304Q48.05625 331.90866 48.05625 330.95554Q48.05625 330.03366 48.36875 329.26804Q48.68125 328.5024 49.30625 328.1118Q49.93125 327.70554 50.696877 327.70554Q51.259377 327.70554 51.696877 327.9399Q52.134377 328.1743 52.415627 328.5493L52.415627 325.47116L53.4625 325.47116L53.4625 334.0649L52.478127 334.0649ZM49.15 330.95554Q49.15 332.15866 49.65 332.7524Q50.15 333.33054 50.8375 333.33054Q51.525 333.33054 52.009377 332.76804Q52.49375 332.20554 52.49375 331.0493Q52.49375 329.76804 51.99375 329.1743Q51.509377 328.58054 50.790627 328.58054Q50.0875 328.58054 49.61875 329.15866Q49.15 329.72116 49.15 330.95554ZM58.571877 334.0649L58.571877 325.47116L61.821877 325.47116Q62.665627 325.47116 63.11875 325.5493Q63.759377 325.65866 64.18125 325.95554Q64.61875 326.2524 64.86875 326.78366Q65.13438 327.3149 65.13438 327.95554Q65.13438 329.0493 64.43125 329.8149Q63.74375 330.5649 61.915627 330.5649L59.7125 330.5649L59.7125 334.0649L58.571877 334.0649ZM59.7125 329.5649L61.93125 329.5649Q63.040627 329.5649 63.49375 329.15866Q63.9625 328.7368 63.9625 327.9868Q63.9625 327.45554 63.68125 327.08054Q63.415627 326.6899 62.978127 326.5649Q62.68125 326.4868 61.915627 326.4868L59.7125 326.4868L59.7125 329.5649ZM66.43125 334.0649L66.43125 327.84616L67.38438 327.84616L67.38438 328.78366Q67.74375 328.1274 68.04063 327.9243Q68.35313 327.70554 68.72813 327.70554Q69.25938 327.70554 69.80625 328.03366L69.44688 329.01804Q69.05625 328.78366 68.68125 328.78366Q68.32188 328.78366 68.04063 329.0024Q67.775 329.20554 67.66563 329.58054Q67.47813 330.14304 67.47813 330.7993L67.47813 334.0649L66.43125 334.0649ZM74.69688 332.0649L75.79063 332.1899Q75.54063 333.14304 74.8375 333.6743Q74.13438 334.20554 73.05625 334.20554Q71.69688 334.20554 70.88438 333.3618Q70.0875 332.51804 70.0875 331.0024Q70.0875 329.4399 70.9 328.58054Q71.7125 327.70554 72.99375 327.70554Q74.24375 327.70554 75.025 328.5493Q75.82188 329.39304 75.82188 330.9399Q75.82188 331.03366 75.82188 331.22116L71.18125 331.22116Q71.24375 332.2524 71.75938 332.7993Q72.275 333.33054 73.05625 333.33054Q73.63438 333.33054 74.04063 333.03366Q74.4625 332.72116 74.69688 332.0649ZM71.24375 330.3618L74.7125 330.3618Q74.65 329.5649 74.32188 329.1743Q73.80625 328.5649 73.00938 328.5649Q72.275 328.5649 71.775 329.0493Q71.29063 329.53366 71.24375 330.3618ZM81.50938 331.78366L82.54063 331.9243Q82.36875 332.9868 81.66563 333.59616Q80.9625 334.20554 79.94688 334.20554Q78.66563 334.20554 77.88438 333.3774Q77.11875 332.53366 77.11875 330.97116Q77.11875 329.97116 77.44688 329.22116Q77.79063 328.45554 78.4625 328.08054Q79.15 327.70554 79.9625 327.70554Q80.9625 327.70554 81.60313 328.22116Q82.25938 328.72116 82.44688 329.6743L81.41563 329.83054Q81.275 329.20554 80.9 328.89304Q80.525 328.5649 79.99375 328.5649Q79.19688 328.5649 78.69688 329.14304Q78.19688 329.70554 78.19688 330.9399Q78.19688 332.20554 78.68125 332.76804Q79.16563 333.33054 79.93125 333.33054Q80.55625 333.33054 80.9625 332.95554Q81.38438 332.58054 81.50938 331.78366ZM83.44688 326.6899L83.44688 325.47116L84.50938 325.47116L84.50938 326.6899L83.44688 326.6899ZM83.44688 334.0649L83.44688 327.84616L84.50938 327.84616L84.50938 334.0649L83.44688 334.0649ZM86.025 332.20554L87.05625 332.0493Q87.15 332.6743 87.54063 333.0024Q87.94688 333.33054 88.68125 333.33054Q89.4 333.33054 89.74375 333.0493Q90.10313 332.7524 90.10313 332.34616Q90.10313 331.9868 89.79063 331.78366Q89.57188 331.64304 88.7125 331.4243Q87.55625 331.1274 87.10313 330.9243Q86.66563 330.70554 86.43125 330.33054Q86.19688 329.95554 86.19688 329.4868Q86.19688 329.08054 86.38438 328.72116Q86.57188 328.3618 86.9 328.1274Q87.15 327.95554 87.57188 327.83054Q87.99375 327.70554 88.49375 327.70554Q89.2125 327.70554 89.75938 327.9243Q90.32188 328.1274 90.5875 328.4868Q90.85313 328.84616 90.94688 329.4399L89.91563 329.58054Q89.85313 329.1118 89.50938 328.84616Q89.18125 328.5649 88.55625 328.5649Q87.8375 328.5649 87.525 328.8149Q87.2125 329.0493 87.2125 329.3774Q87.2125 329.58054 87.3375 329.7368Q87.47813 329.90866 87.74375 330.01804Q87.9 330.08054 88.68125 330.28366Q89.80625 330.59616 90.24375 330.78366Q90.68125 330.97116 90.93125 331.33054Q91.18125 331.6899 91.18125 332.2368Q91.18125 332.76804 90.86875 333.2368Q90.57188 333.6899 89.99375 333.95554Q89.41563 334.20554 88.68125 334.20554Q87.4625 334.20554 86.82188 333.70554Q86.19688 333.1899 86.025 332.20554ZM93.44688 326.6899L93.44688 325.47116L94.50938 325.47116L94.50938 326.6899L93.44688 326.6899ZM93.44688 334.0649L93.44688 327.84616L94.50938 327.84616L94.50938 334.0649L93.44688 334.0649ZM96.05625 330.95554Q96.05625 329.22116 97.00938 328.39304Q97.80625 327.70554 98.9625 327.70554Q100.24375 327.70554 101.05625 328.5493Q101.88438 329.3774 101.88438 330.8618Q101.88438 332.0649 101.525 332.7524Q101.16563 333.4399 100.4625 333.83054Q99.775 334.20554 98.9625 334.20554Q97.66563 334.20554 96.85313 333.3774Q96.05625 332.53366 96.05625 330.95554ZM97.13438 330.95554Q97.13438 332.14304 97.65 332.7368Q98.18125 333.33054 98.9625 333.33054Q99.75938 333.33054 100.275 332.7368Q100.79063 332.14304 100.79063 330.9243Q100.79063 329.76804 100.25938 329.1743Q99.74375 328.58054 98.9625 328.58054Q98.18125 328.58054 97.65 329.1743Q97.13438 329.7524 97.13438 330.95554ZM103.44688 334.0649L103.44688 327.84616L104.38438 327.84616L104.38438 328.72116Q105.07188 327.70554 106.36875 327.70554Q106.93125 327.70554 107.4 327.90866Q107.88438 328.1118 108.11875 328.4399Q108.35313 328.76804 108.44688 329.20554Q108.49375 329.5024 108.49375 330.2368L108.49375 334.0649L107.44688 334.0649L107.44688 330.28366Q107.44688 329.6274 107.32188 329.3149Q107.19688 329.0024 106.88438 328.8149Q106.57188 328.6118 106.15 328.6118Q105.47813 328.6118 104.97813 329.0493Q104.49375 329.47116 104.49375 330.65866L104.49375 334.0649L103.44688 334.0649ZM115.4625 336.59616Q114.5875 335.4868 113.97813 334.01804Q113.38438 332.53366 113.38438 330.95554Q113.38438 329.5649 113.82188 328.28366Q114.35313 326.7993 115.4625 325.33054L116.2125 325.33054Q115.50938 326.5493 115.275 327.0649Q114.91563 327.8774 114.7125 328.7524Q114.4625 329.84616 114.4625 330.95554Q114.4625 333.78366 116.2125 336.59616L115.4625 336.59616ZM116.63438 334.0649L119.93125 325.47116L121.15 325.47116L124.66563 334.0649L123.38438 334.0649L122.36875 331.45554L118.79063 331.45554L117.8375 334.0649L116.63438 334.0649ZM119.11875 330.53366L122.025 330.53366L121.13438 328.15866Q120.7125 327.08054 120.525 326.3774Q120.35313 327.20554 120.05625 328.01804L119.11875 330.53366ZM124.54063 334.0649L124.54063 325.47116L126.25938 325.47116L128.29062 331.5493Q128.57187 332.40866 128.69687 332.83054Q128.8375 332.3618 129.15 331.45554L131.2125 325.47116L132.74374 325.47116L132.74374 334.0649L131.65 334.0649L131.65 326.8774L129.15 334.0649L128.11874 334.0649L125.63438 326.7524L125.63438 334.0649L124.54063 334.0649ZM133.57187 334.0649L133.57187 325.47116L136.82187 325.47116Q137.66562 325.47116 138.11874 325.5493Q138.75937 325.65866 139.18124 325.95554Q139.61874 326.2524 139.86874 326.78366Q140.13437 327.3149 140.13437 327.95554Q140.13437 329.0493 139.43124 329.8149Q138.74374 330.5649 136.91562 330.5649L134.7125 330.5649L134.7125 334.0649L133.57187 334.0649ZM134.7125 329.5649L136.93124 329.5649Q138.04062 329.5649 138.49374 329.15866Q138.9625 328.7368 138.9625 327.9868Q138.9625 327.45554 138.68124 327.08054Q138.41562 326.6899 137.97812 326.5649Q137.68124 326.4868 136.91562 326.4868L134.7125 326.4868L134.7125 329.5649ZM142.13437 336.59616L141.38437 336.59616Q143.13437 333.78366 143.13437 330.95554Q143.13437 329.8618 142.88437 328.76804Q142.68124 327.89304 142.32187 327.08054Q142.0875 326.5649 141.38437 325.33054L142.13437 325.33054Q143.22812 326.7993 143.75937 328.28366Q144.2125 329.5649 144.2125 330.95554Q144.2125 332.53366 143.60312 334.01804Q142.99374 335.4868 142.13437 336.59616Z" fill-rule="nonzero"/><path fill="#000000" d="M147.65 410.11563Q147.65 408.58438 147.9625 407.6625Q148.275 406.725 148.88437 406.225Q149.50937 405.725 150.44687 405.725Q151.13437 405.725 151.65 406.00626Q152.18124 406.2875 152.525 406.81876Q152.86874 407.33438 153.05624 408.08438Q153.24374 408.83438 153.24374 410.11563Q153.24374 411.63126 152.93124 412.55313Q152.63437 413.475 152.00937 413.99063Q151.4 414.49063 150.44687 414.49063Q149.2125 414.49063 148.49374 413.6Q147.65 412.5375 147.65 410.11563ZM148.72812 410.11563Q148.72812 412.225 149.22812 412.92813Q149.72812 413.63126 150.44687 413.63126Q151.18124 413.63126 151.66562 412.92813Q152.16562 412.225 152.16562 410.11563Q152.16562 407.99063 151.66562 407.30313Q151.18124 406.6 150.43124 406.6Q149.7125 406.6 149.275 407.20938Q148.72812 407.99063 148.72812 410.11563Z" fill-rule="nonzero"/><path fill="#000000" d="M287.79376 414.35L286.7469 414.35L286.7469 407.63126Q286.35626 407.99063 285.73126 408.36563Q285.1219 408.725 284.6375 408.89688L284.6375 407.88126Q285.5125 407.45938 286.16876 406.88126Q286.84064 406.2875 287.1219 405.725L287.79376 405.725L287.79376 414.35ZM290.825 410.11563Q290.825 408.58438 291.1375 407.6625Q291.45 406.725 292.0594 406.225Q292.6844 405.725 293.6219 405.725Q294.3094 405.725 294.825 406.00626Q295.35626 406.2875 295.7 406.81876Q296.04376 407.33438 296.23126 408.08438Q296.41876 408.83438 296.41876 410.11563Q296.41876 411.63126 296.10626 412.55313Q295.8094 413.475 295.1844 413.99063Q294.575 414.49063 293.6219 414.49063Q292.3875 414.49063 291.66876 413.6Q290.825 412.5375 290.825 410.11563ZM291.90314 410.11563Q291.90314 412.225 292.40314 412.92813Q292.90314 413.63126 293.6219 413.63126Q294.35626 413.63126 294.84064 412.92813Q295.34064 412.225 295.34064 410.11563Q295.34064 407.99063 294.84064 407.30313Q294.35626 406.6 293.60626 406.6Q292.8875 406.6 292.45 407.20938Q291.90314 407.99063 291.90314 410.11563ZM297.825 410.11563Q297.825 408.58438 298.1375 407.6625Q298.45 406.725 299.0594 406.225Q299.6844 405.725 300.6219 405.725Q301.3094 405.725 301.825 406.00626Q302.35626 406.2875 302.7 406.81876Q303.04376 407.33438 303.23126 408.08438Q303.41876 408.83438 303.41876 410.11563Q303.41876 411.63126 303.10626 412.55313Q302.8094 413.475 302.1844 413.99063Q301.575 414.49063 300.6219 414.49063Q299.3875 414.49063 298.66876 413.6Q297.825 412.5375 297.825 410.11563ZM298.90314 410.11563Q298.90314 412.225 299.40314 412.92813Q299.90314 413.63126 300.6219 413.63126Q301.35626 413.63126 301.84064 412.92813Q302.34064 412.225 302.34064 410.11563Q302.34064 407.99063 301.84064 407.30313Q301.35626 406.6 300.60626 406.6Q299.8875 406.6 299.45 407.20938Q298.90314 407.99063 298.90314 410.11563ZM304.825 410.11563Q304.825 408.58438 305.1375 407.6625Q305.45 406.725 306.0594 406.225Q306.6844 405.725 307.6219 405.725Q308.3094 405.725 308.825 406.00626Q309.35626 406.2875 309.7 406.81876Q310.04376 407.33438 310.23126 408.08438Q310.41876 408.83438 310.41876 410.11563Q310.41876 411.63126 310.10626 412.55313Q309.8094 413.475 309.1844 413.99063Q308.575 414.49063 307.6219 414.49063Q306.3875 414.49063 305.66876 413.6Q304.825 412.5375 304.825 410.11563ZM305.90314 410.11563Q305.90314 412.225 306.40314 412.92813Q306.90314 413.63126 307.6219 413.63126Q308.35626 413.63126 308.84064 412.92813Q309.34064 412.225 309.34064 410.11563Q309.34064 407.99063 308.84064 407.30313Q308.35626 406.6 307.60626 406.6Q306.8875 406.6 306.45 407.20938Q305.90314 407.99063 305.90314 410.11563Z" fill-rule="nonzero"/><path fill="#000000" d="M436.04688 413.33438L436.04688 414.35L430.35938 414.35Q430.35938 413.975 430.48438 413.61563Q430.70312 413.0375 431.17188 412.475Q431.65625 411.9125 432.5625 411.17813Q433.96875 410.02188 434.45312 409.35Q434.95312 408.67813 434.95312 408.08438Q434.95312 407.45938 434.5 407.0375Q434.04688 406.6 433.32812 406.6Q432.5625 406.6 432.10938 407.05313Q431.65625 407.50626 431.64062 408.31876L430.5625 408.20938Q430.67188 406.99063 431.39062 406.36563Q432.125 405.725 433.35938 405.725Q434.59375 405.725 435.3125 406.4125Q436.03125 407.1 436.03125 408.11563Q436.03125 408.63126 435.8125 409.13126Q435.60938 409.61563 435.10938 410.17813Q434.625 410.725 433.5 411.67813Q432.54688 412.475 432.26562 412.77188Q432.0 413.05313 431.82812 413.33438L436.04688 413.33438ZM437.5 410.11563Q437.5 408.58438 437.8125 407.6625Q438.125 406.725 438.73438 406.225Q439.35938 405.725 440.29688 405.725Q440.98438 405.725 441.5 406.00626Q442.03125 406.2875 442.375 406.81876Q442.71875 407.33438 442.90625 408.08438Q443.09375 408.83438 443.09375 410.11563Q443.09375 411.63126 442.78125 412.55313Q442.48438 413.475 441.85938 413.99063Q441.25 414.49063 440.29688 414.49063Q439.0625 414.49063 438.34375 413.6Q437.5 412.5375 437.5 410.11563ZM438.57812 410.11563Q438.57812 412.225 439.07812 412.92813Q439.57812 413.63126 440.29688 413.63126Q441.03125 413.63126 441.51562 412.92813Q442.01562 412.225 442.01562 410.11563Q442.01562 407.99063 441.51562 407.30313Q441.03125 406.6 440.28125 406.6Q439.5625 406.6 439.125 407.20938Q438.57812 407.99063 438.57812 410.11563ZM444.5 410.11563Q444.5 408.58438 444.8125 407.6625Q445.125 406.725 445.73438 406.225Q446.35938 405.725 447.29688 405.725Q447.98438 405.725 448.5 406.00626Q449.03125 406.2875 449.375 406.81876Q449.71875 407.33438 449.90625 408.08438Q450.09375 408.83438 450.09375 410.11563Q450.09375 411.63126 449.78125 412.55313Q449.48438 413.475 448.85938 413.99063Q448.25 414.49063 447.29688 414.49063Q446.0625 414.49063 445.34375 413.6Q444.5 412.5375 444.5 410.11563ZM445.57812 410.11563Q445.57812 412.225 446.07812 412.92813Q446.57812 413.63126 447.29688 413.63126Q448.03125 413.63126 448.51562 412.92813Q449.01562 412.225 449.01562 410.11563Q449.01562 407.99063 448.51562 407.30313Q448.03125 406.6 447.28125 406.6Q446.5625 406.6 446.125 407.20938Q445.57812 407.99063 445.57812 410.11563ZM451.5 410.11563Q451.5 408.58438 451.8125 407.6625Q452.125 406.725 452.73438 406.225Q453.35938 405.725 454.29688 405.725Q454.98438 405.725 455.5 406.00626Q456.03125 406.2875 456.375 406.81876Q456.71875 407.33438 456.90625 408.08438Q457.09375 408.83438 457.09375 410.11563Q457.09375 411.63126 456.78125 412.55313Q456.48438 413.475 455.85938 413.99063Q455.25 414.49063 454.29688 414.49063Q453.0625 414.49063 452.34375 413.6Q451.5 412.5375 451.5 410.11563ZM452.57812 410.11563Q452.57812 412.225 453.07812 412.92813Q453.57812 413.63126 454.29688 413.63126Q455.03125 413.63126 455.51562 412.92813Q456.01562 412.225 456.01562 410.11563Q456.01562 407.99063 455.51562 407.30313Q455.03125 406.6 454.28125 406.6Q453.5625 406.6 453.125 407.20938Q452.57812 407.99063 452.57812 410.11563Z" fill-rule="nonzero"/><path fill="#000000" d="M577.175 412.08438L578.2375 411.94376Q578.40936 412.83438 578.84686 413.24063Q579.28436 413.63126 579.90936 413.63126Q580.65936 413.63126 581.175 413.11563Q581.6906 412.6 581.6906 411.83438Q581.6906 411.11563 581.20624 410.64688Q580.7375 410.1625 580.0031 410.1625Q579.70624 410.1625 579.2531 410.2875L579.3781 409.35Q579.4875 409.36563 579.55 409.36563Q580.22186 409.36563 580.7531 409.02188Q581.3 408.6625 581.3 407.92813Q581.3 407.35 580.90936 406.975Q580.51874 406.58438 579.89374 406.58438Q579.28436 406.58438 578.8625 406.975Q578.45624 407.36563 578.34686 408.13126L577.28436 407.94376Q577.47186 406.89688 578.15936 406.31876Q578.84686 405.725 579.8625 405.725Q580.5656 405.725 581.15936 406.0375Q581.7531 406.33438 582.0656 406.85Q582.3781 407.36563 582.3781 407.95938Q582.3781 408.50626 582.08124 408.975Q581.78436 409.42813 581.20624 409.69376Q581.95624 409.86563 582.3781 410.42813Q582.8 410.975 582.8 411.81876Q582.8 412.94376 581.97186 413.725Q581.15936 414.50626 579.90936 414.50626Q578.78436 414.50626 578.03436 413.83438Q577.28436 413.14688 577.175 412.08438ZM584.175 410.11563Q584.175 408.58438 584.4875 407.6625Q584.8 406.725 585.40936 406.225Q586.03436 405.725 586.97186 405.725Q587.65936 405.725 588.175 406.00626Q588.70624 406.2875 589.05 406.81876Q589.39374 407.33438 589.58124 408.08438Q589.76874 408.83438 589.76874 410.11563Q589.76874 411.63126 589.45624 412.55313Q589.15936 413.475 588.53436 413.99063Q587.925 414.49063 586.97186 414.49063Q585.7375 414.49063 585.01874 413.6Q584.175 412.5375 584.175 410.11563ZM585.2531 410.11563Q585.2531 412.225 585.7531 412.92813Q586.2531 413.63126 586.97186 413.63126Q587.70624 413.63126 588.1906 412.92813Q588.6906 412.225 588.6906 410.11563Q588.6906 407.99063 588.1906 407.30313Q587.70624 406.6 586.95624 406.6Q586.2375 406.6 585.8 407.20938Q585.2531 407.99063 585.2531 410.11563ZM591.175 410.11563Q591.175 408.58438 591.4875 407.6625Q591.8 406.725 592.40936 406.225Q593.03436 405.725 593.97186 405.725Q594.65936 405.725 595.175 406.00626Q595.70624 406.2875 596.05 406.81876Q596.39374 407.33438 596.58124 408.08438Q596.76874 408.83438 596.76874 410.11563Q596.76874 411.63126 596.45624 412.55313Q596.15936 413.475 595.53436 413.99063Q594.925 414.49063 593.97186 414.49063Q592.7375 414.49063 592.01874 413.6Q591.175 412.5375 591.175 410.11563ZM592.2531 410.11563Q592.2531 412.225 592.7531 412.92813Q593.2531 413.63126 593.97186 413.63126Q594.70624 413.63126 595.1906 412.92813Q595.6906 412.225 595.6906 410.11563Q595.6906 407.99063 595.1906 407.30313Q594.70624 406.6 593.95624 406.6Q593.2375 406.6 592.8 407.20938Q592.2531 407.99063 592.2531 410.11563ZM598.175 410.11563Q598.175 408.58438 598.4875 407.6625Q598.8 406.725 599.40936 406.225Q600.03436 405.725 600.97186 405.725Q601.65936 405.725 602.175 406.00626Q602.70624 406.2875 603.05 406.81876Q603.39374 407.33438 603.58124 408.08438Q603.76874 408.83438 603.76874 410.11563Q603.76874 411.63126 603.45624 412.55313Q603.15936 413.475 602.53436 413.99063Q601.925 414.49063 600.97186 414.49063Q599.7375 414.49063 599.01874 413.6Q598.175 412.5375 598.175 410.11563ZM599.2531 410.11563Q599.2531 412.225 599.7531 412.92813Q600.2531 413.63126 600.97186 413.63126Q601.70624 413.63126 602.1906 412.92813Q602.6906 412.225 602.6906 410.11563Q602.6906 407.99063 602.1906 407.30313Q601.70624 406.6 600.95624 406.6Q600.2375 406.6 599.8 407.20938Q599.2531 407.99063 599.2531 410.11563Z" fill-rule="nonzero"/><path fill="#000000" d="M727.225 414.35L727.225 412.2875L723.5062 412.2875L723.5062 411.31876L727.4281 405.75626L728.2875 405.75626L728.2875 411.31876L729.4437 411.31876L729.4437 412.2875L728.2875 412.2875L728.2875 414.35L727.225 414.35ZM727.225 411.31876L727.225 407.45938L724.5375 411.31876L727.225 411.31876ZM730.85 410.11563Q730.85 408.58438 731.1625 407.6625Q731.475 406.725 732.08435 406.225Q732.70935 405.725 733.64685 405.725Q734.33435 405.725 734.85 406.00626Q735.3812 406.2875 735.725 406.81876Q736.0687 407.33438 736.2562 408.08438Q736.4437 408.83438 736.4437 410.11563Q736.4437 411.63126 736.1312 412.55313Q735.83435 413.475 735.20935 413.99063Q734.6 414.49063 733.64685 414.49063Q732.4125 414.49063 731.6937 413.6Q730.85 412.5375 730.85 410.11563ZM731.9281 410.11563Q731.9281 412.225 732.4281 412.92813Q732.9281 413.63126 733.64685 413.63126Q734.3812 413.63126 734.8656 412.92813Q735.3656 412.225 735.3656 410.11563Q735.3656 407.99063 734.8656 407.30313Q734.3812 406.6 733.6312 406.6Q732.9125 406.6 732.475 407.20938Q731.9281 407.99063 731.9281 410.11563ZM737.85 410.11563Q737.85 408.58438 738.1625 407.6625Q738.475 406.725 739.08435 406.225Q739.70935 405.725 740.64685 405.725Q741.33435 405.725 741.85 406.00626Q742.3812 406.2875 742.725 406.81876Q743.0687 407.33438 743.2562 408.08438Q743.4437 408.83438 743.4437 410.11563Q743.4437 411.63126 743.1312 412.55313Q742.83435 413.475 742.20935 413.99063Q741.6 414.49063 740.64685 414.49063Q739.4125 414.49063 738.6937 413.6Q737.85 412.5375 737.85 410.11563ZM738.9281 410.11563Q738.9281 412.225 739.4281 412.92813Q739.9281 413.63126 740.64685 413.63126Q741.3812 413.63126 741.8656 412.92813Q742.3656 412.225 742.3656 410.11563Q742.3656 407.99063 741.8656 407.30313Q741.3812 406.6 740.6312 406.6Q739.9125 406.6 739.475 407.20938Q738.9281 407.99063 738.9281 410.11563ZM744.85 410.11563Q744.85 408.58438 745.1625 407.6625Q745.475 406.725 746.08435 406.225Q746.70935 405.725 747.64685 405.725Q748.33435 405.725 748.85 406.00626Q749.3812 406.2875 749.725 406.81876Q750.0687 407.33438 750.2562 408.08438Q750.4437 408.83438 750.4437 410.11563Q750.4437 411.63126 750.1312 412.55313Q749.83435 413.475 749.20935 413.99063Q748.6 414.49063 747.64685 414.49063Q746.4125 414.49063 745.6937 413.6Q744.85 412.5375 744.85 410.11563ZM745.9281 410.11563Q745.9281 412.225 746.4281 412.92813Q746.9281 413.63126 747.64685 413.63126Q748.3812 413.63126 748.8656 412.92813Q749.3656 412.225 749.3656 410.11563Q749.3656 407.99063 748.8656 407.30313Q748.3812 406.6 747.6312 406.6Q746.9125 406.6 746.475 407.20938Q745.9281 407.99063 745.9281 410.11563Z" fill-rule="nonzero"/><path fill="#757575" d="M38.009377 42.65L34.86875 42.65L33.61875 39.4L27.9 39.4L26.7125 42.65L23.65 42.65L29.228125 28.337502L32.290627 28.337502L38.009377 42.65ZM32.696877 36.978127L30.728125 31.665627L28.790625 36.978127L32.696877 36.978127ZM37.884377 32.275L40.415627 32.275L40.415627 33.696877Q41.775 32.040627 43.65 32.040627Q44.634377 32.040627 45.36875 32.4625Q46.103127 32.86875 46.571877 33.696877Q47.259377 32.86875 48.040627 32.4625Q48.8375 32.040627 49.74375 32.040627Q50.884377 32.040627 51.665627 32.509377Q52.4625 32.978127 52.853127 33.86875Q53.134377 34.540627 53.134377 36.025L53.134377 42.65L50.384377 42.65L50.384377 36.728127Q50.384377 35.18125 50.103127 34.728127Q49.728127 34.15 48.93125 34.15Q48.353127 34.15 47.8375 34.509377Q47.3375 34.853127 47.11875 35.525Q46.9 36.196877 46.9 37.665627L46.9 42.65L44.15 42.65L44.15 36.9625Q44.15 35.446877 43.99375 35.009377Q43.853127 34.571877 43.540627 34.36875Q43.24375 34.15 42.7125 34.15Q42.0875 34.15 41.571877 34.49375Q41.071877 34.821877 40.8375 35.478127Q40.61875 36.11875 40.61875 37.603127L40.61875 42.65L37.884377 42.65L37.884377 32.275ZM54.446877 37.321877Q54.446877 35.946877 55.11875 34.665627Q55.80625 33.384377 57.040627 32.7125Q58.275 32.040627 59.790627 32.040627Q62.15 32.040627 63.65 33.571877Q65.15 35.103127 65.15 37.43125Q65.15 39.790627 63.634377 41.3375Q62.11875 42.884377 59.80625 42.884377Q58.384377 42.884377 57.0875 42.24375Q55.80625 41.5875 55.11875 40.353127Q54.446877 39.103127 54.446877 37.321877ZM57.259377 37.4625Q57.259377 39.009377 57.99375 39.8375Q58.728127 40.65 59.80625 40.65Q60.884377 40.65 61.603127 39.8375Q62.3375 39.009377 62.3375 37.446877Q62.3375 35.915627 61.603127 35.103127Q60.884377 34.275 59.80625 34.275Q58.728127 34.275 57.99375 35.103127Q57.259377 35.915627 57.259377 37.4625ZM73.91563 42.65L73.91563 41.103127Q73.35313 41.93125 72.41563 42.415627Q71.49375 42.884377 70.47813 42.884377Q69.43125 42.884377 68.60313 42.43125Q67.775 41.9625 67.4 41.134377Q67.025 40.30625 67.025 38.8375L67.025 32.275L69.775 32.275L69.775 37.040627Q69.775 39.228127 69.91563 39.728127Q70.07188 40.2125 70.4625 40.509377Q70.86875 40.790627 71.49375 40.790627Q72.19688 40.790627 72.74375 40.415627Q73.30625 40.025 73.50938 39.4625Q73.7125 38.884377 73.7125 36.65L73.7125 32.275L76.4625 32.275L76.4625 42.65L73.91563 42.65ZM88.525 42.65L85.775 42.65L85.775 37.353127Q85.775 35.68125 85.60313 35.196877Q85.43125 34.696877 85.025 34.43125Q84.63438 34.15 84.07188 34.15Q83.36875 34.15 82.79063 34.540627Q82.22813 34.93125 82.00938 35.571877Q81.80625 36.2125 81.80625 37.946877L81.80625 42.65L79.07188 42.65L79.07188 32.275L81.61875 32.275L81.61875 33.80625Q82.97813 32.040627 85.04063 32.040627Q85.94688 32.040627 86.69688 32.36875Q87.44688 32.696877 87.82188 33.2125Q88.2125 33.7125 88.36875 34.36875Q88.525 35.009377 88.525 36.196877L88.525 42.65ZM95.8375 32.275L95.8375 34.4625L93.9625 34.4625L93.9625 38.65Q93.9625 39.915627 94.00938 40.134377Q94.07188 40.3375 94.25938 40.478127Q94.4625 40.603127 94.72813 40.603127Q95.10313 40.603127 95.8375 40.3375L96.07188 42.478127Q95.10313 42.884377 93.9 42.884377Q93.15 42.884377 92.55625 42.634377Q91.9625 42.384377 91.68125 41.99375Q91.41563 41.5875 91.30625 40.915627Q91.2125 40.446877 91.2125 38.99375L91.2125 34.4625L89.94688 34.4625L89.94688 32.275L91.2125 32.275L91.2125 30.212502L93.9625 28.618752L93.9625 32.275L95.8375 32.275ZM103.44688 37.321877Q103.44688 35.946877 104.11875 34.665627Q104.80625 33.384377 106.04063 32.7125Q107.275 32.040627 108.79063 32.040627Q111.15 32.040627 112.65 33.571877Q114.15 35.103127 114.15 37.43125Q114.15 39.790627 112.63438 41.3375Q111.11875 42.884377 108.80625 42.884377Q107.38438 42.884377 106.0875 42.24375Q104.80625 41.5875 104.11875 40.353127Q103.44688 39.103127 103.44688 37.321877ZM106.25938 37.4625Q106.25938 39.009377 106.99375 39.8375Q107.72813 40.65 108.80625 40.65Q109.88438 40.65 110.60313 39.8375Q111.3375 39.009377 111.3375 37.446877Q111.3375 35.915627 110.60313 35.103127Q109.88438 34.275 108.80625 34.275Q107.72813 34.275 106.99375 35.103127Q106.25938 35.915627 106.25938 37.4625ZM114.88438 32.275L116.41563 32.275L116.41563 31.493752Q116.41563 30.181252 116.68125 29.540627Q116.9625 28.900002 117.7125 28.493752Q118.4625 28.087502 119.60313 28.087502Q120.775 28.087502 121.9 28.446877L121.525 30.353127Q120.86875 30.196877 120.25938 30.196877Q119.66563 30.196877 119.4 30.478127Q119.15 30.759377 119.15 31.540627L119.15 32.275L121.19688 32.275L121.19688 34.43125L119.15 34.43125L119.15 42.65L116.41563 42.65L116.41563 34.43125L114.88438 34.43125L114.88438 32.275ZM129.07187 42.65L129.07187 28.337502L133.4 28.337502L135.99374 38.103127L138.55624 28.337502L142.9 28.337502L142.9 42.65L140.2125 42.65L140.2125 31.384377L137.36874 42.65L134.5875 42.65L131.75937 31.384377L131.75937 42.65L129.07187 42.65ZM152.0875 39.353127L154.82187 39.80625Q154.30624 41.30625 153.16562 42.103127Q152.025 42.884377 150.32187 42.884377Q147.60312 42.884377 146.30624 41.11875Q145.29062 39.696877 145.29062 37.540627Q145.29062 34.9625 146.63437 33.509377Q147.97812 32.040627 150.04062 32.040627Q152.35312 32.040627 153.68124 33.571877Q155.025 35.103127 154.97812 38.259377L148.10312 38.259377Q148.13437 39.478127 148.75937 40.165627Q149.4 40.8375 150.3375 40.8375Q150.99374 40.8375 151.43124 40.49375Q151.86874 40.134377 152.0875 39.353127ZM152.24374 36.571877Q152.2125 35.384377 151.61874 34.775Q151.04062 34.15 150.2125 34.15Q149.30624 34.15 148.72812 34.790627Q148.13437 35.446877 148.15 36.571877L152.24374 36.571877ZM156.88437 32.275L159.41562 32.275L159.41562 33.696877Q160.775 32.040627 162.65 32.040627Q163.63437 32.040627 164.36874 32.4625Q165.10312 32.86875 165.57187 33.696877Q166.25937 32.86875 167.04062 32.4625Q167.8375 32.040627 168.74374 32.040627Q169.88437 32.040627 170.66562 32.509377Q171.4625 32.978127 171.85312 33.86875Q172.13437 34.540627 172.13437 36.025L172.13437 42.65L169.38437 42.65L169.38437 36.728127Q169.38437 35.18125 169.10312 34.728127Q168.72812 34.15 167.93124 34.15Q167.35312 34.15 166.8375 34.509377Q166.3375 34.853127 166.11874 35.525Q165.9 36.196877 165.9 37.665627L165.9 42.65L163.15 42.65L163.15 36.9625Q163.15 35.446877 162.99374 35.009377Q162.85312 34.571877 162.54062 34.36875Q162.24374 34.15 161.7125 34.15Q161.0875 34.15 160.57187 34.49375Q160.07187 34.821877 159.8375 35.478127Q159.61874 36.11875 159.61874 37.603127L159.61874 42.65L156.88437 42.65L156.88437 32.275ZM173.44687 37.321877Q173.44687 35.946877 174.11874 34.665627Q174.80624 33.384377 176.04062 32.7125Q177.275 32.040627 178.79062 32.040627Q181.15 32.040627 182.65 33.571877Q184.15 35.103127 184.15 37.43125Q184.15 39.790627 182.63437 41.3375Q181.11874 42.884377 178.80624 42.884377Q177.38437 42.884377 176.0875 42.24375Q174.80624 41.5875 174.11874 40.353127Q173.44687 39.103127 173.44687 37.321877ZM176.25937 37.4625Q176.25937 39.009377 176.99374 39.8375Q177.72812 40.65 178.80624 40.65Q179.88437 40.65 180.60312 39.8375Q181.3375 39.009377 181.3375 37.446877Q181.3375 35.915627 180.60312 35.103127Q179.88437 34.275 178.80624 34.275Q177.72812 34.275 176.99374 35.103127Q176.25937 35.915627 176.25937 37.4625ZM188.7125 42.65L185.9625 42.65L185.9625 32.275L188.525 32.275L188.525 33.759377Q189.16562 32.7125 189.68124 32.384377Q190.2125 32.040627 190.88437 32.040627Q191.82187 32.040627 192.68124 32.55625L191.8375 34.946877Q191.15 34.509377 190.55624 34.509377Q189.97812 34.509377 189.57187 34.821877Q189.16562 35.134377 188.93124 35.978127Q188.7125 36.80625 188.7125 39.446877L188.7125 42.65ZM192.79062 32.275L195.7125 32.275L198.18124 39.634377L200.60312 32.275L203.44687 32.275L199.79062 42.259377L199.13437 44.071877Q198.775 44.978127 198.44687 45.446877Q198.11874 45.93125 197.69687 46.228127Q197.275 46.525 196.65 46.68125Q196.025 46.853127 195.24374 46.853127Q194.4625 46.853127 193.69687 46.696877L193.44687 44.540627Q194.10312 44.665627 194.61874 44.665627Q195.57187 44.665627 196.025 44.103127Q196.49374 43.55625 196.72812 42.68125L192.79062 32.275ZM211.0875 28.337502L213.97812 28.337502L213.97812 36.0875Q213.97812 37.93125 214.0875 38.478127Q214.275 39.353127 214.9625 39.884377Q215.66562 40.415627 216.88437 40.415627Q218.10312 40.415627 218.72812 39.915627Q219.35312 39.415627 219.47812 38.68125Q219.61874 37.946877 219.61874 36.259377L219.61874 28.337502L222.50937 28.337502L222.50937 35.853127Q222.50937 38.43125 222.275 39.49375Q222.04062 40.55625 221.4 41.290627Q220.775 42.025 219.7125 42.4625Q218.66562 42.9 216.9625 42.9Q214.91562 42.9 213.85312 42.43125Q212.79062 41.946877 212.18124 41.196877Q211.57187 40.43125 211.36874 39.603127Q211.0875 38.36875 211.0875 35.9625L211.0875 28.337502ZM224.11874 39.696877L226.86874 39.275Q227.05624 40.071877 227.5875 40.49375Q228.11874 40.9 229.0875 40.9Q230.15 40.9 230.69687 40.509377Q231.05624 40.24375 231.05624 39.775Q231.05624 39.4625 230.85312 39.259377Q230.65 39.071877 229.94687 38.9Q226.61874 38.165627 225.72812 37.55625Q224.49374 36.728127 224.49374 35.228127Q224.49374 33.884377 225.55624 32.9625Q226.63437 32.040627 228.86874 32.040627Q230.99374 32.040627 232.025 32.74375Q233.07187 33.43125 233.4625 34.790627L230.86874 35.259377Q230.69687 34.665627 230.22812 34.3375Q229.775 34.009377 228.91562 34.009377Q227.8375 34.009377 227.36874 34.321877Q227.05624 34.540627 227.05624 34.86875Q227.05624 35.165627 227.32187 35.36875Q227.69687 35.65 229.88437 36.15Q232.07187 36.65 232.94687 37.36875Q233.80624 38.103127 233.80624 39.4Q233.80624 40.8375 232.61874 41.86875Q231.43124 42.884377 229.0875 42.884377Q226.97812 42.884377 225.72812 42.025Q224.49374 41.165627 224.11874 39.696877ZM242.0875 39.353127L244.82187 39.80625Q244.30624 41.30625 243.16562 42.103127Q242.025 42.884377 240.32187 42.884377Q237.60312 42.884377 236.30624 41.11875Q235.29062 39.696877 235.29062 37.540627Q235.29062 34.9625 236.63437 33.509377Q237.97812 32.040627 240.04062 32.040627Q242.35312 32.040627 243.68124 33.571877Q245.025 35.103127 244.97812 38.259377L238.10312 38.259377Q238.13437 39.478127 238.75937 40.165627Q239.4 40.8375 240.3375 40.8375Q240.99374 40.8375 241.43124 40.49375Q241.86874 40.134377 242.0875 39.353127ZM242.24374 36.571877Q242.2125 35.384377 241.61874 34.775Q241.04062 34.15 240.2125 34.15Q239.30624 34.15 238.72812 34.790627Q238.13437 35.446877 238.15 36.571877L242.24374 36.571877ZM256.60312 42.65L254.05624 42.65L254.05624 41.11875Q253.41562 42.009377 252.54062 42.446877Q251.68124 42.884377 250.80624 42.884377Q249.025 42.884377 247.74374 41.446877Q246.47812 40.009377 246.47812 37.43125Q246.47812 34.790627 247.7125 33.415627Q248.94687 32.040627 250.85312 32.040627Q252.5875 32.040627 253.85312 33.49375L253.85312 28.337502L256.60312 28.337502L256.60312 42.65ZM249.275 37.24375Q249.275 38.9 249.72812 39.634377Q250.4 40.7125 251.5875 40.7125Q252.54062 40.7125 253.19687 39.915627Q253.86874 39.103127 253.86874 37.509377Q253.86874 35.7125 253.2125 34.93125Q252.57187 34.15 251.57187 34.15Q250.5875 34.15 249.93124 34.93125Q249.275 35.696877 249.275 37.24375ZM265.10312 42.65L265.10312 28.337502L269.74374 28.337502Q272.38437 28.337502 273.18124 28.540627Q274.41562 28.868752 275.24374 29.946877Q276.07187 31.025002 276.07187 32.74375Q276.07187 34.05625 275.5875 34.9625Q275.11874 35.853127 274.36874 36.36875Q273.63437 36.884377 272.88437 37.040627Q271.8375 37.24375 269.88437 37.24375L267.99374 37.24375L267.99374 42.65L265.10312 42.65ZM267.99374 30.759377L267.99374 34.821877L269.57187 34.821877Q271.29062 34.821877 271.86874 34.603127Q272.44687 34.36875 272.75937 33.9Q273.0875 33.415627 273.0875 32.775Q273.0875 31.993752 272.63437 31.493752Q272.18124 30.978127 271.47812 30.853127Q270.9625 30.759377 269.4 30.759377L267.99374 30.759377ZM284.0875 39.353127L286.82187 39.80625Q286.30624 41.30625 285.16562 42.103127Q284.025 42.884377 282.32187 42.884377Q279.60312 42.884377 278.30624 41.11875Q277.29062 39.696877 277.29062 37.540627Q277.29062 34.9625 278.63437 33.509377Q279.97812 32.040627 282.04062 32.040627Q284.35312 32.040627 285.68124 33.571877Q287.025 35.103127 286.97812 38.259377L280.10312 38.259377Q280.13437 39.478127 280.75937 40.165627Q281.4 40.8375 282.3375 40.8375Q282.99374 40.8375 283.43124 40.49375Q283.86874 40.134377 284.0875 39.353127ZM284.24374 36.571877Q284.2125 35.384377 283.61874 34.775Q283.04062 34.15 282.2125 34.15Q281.30624 34.15 280.72812 34.790627Q280.13437 35.446877 280.15 36.571877L284.24374 36.571877ZM291.7125 42.65L288.9625 42.65L288.9625 32.275L291.525 32.275L291.525 33.759377Q292.16562 32.7125 292.68124 32.384377Q293.2125 32.040627 293.88437 32.040627Q294.82187 32.040627 295.68124 32.55625L294.8375 34.946877Q294.15 34.509377 293.55624 34.509377Q292.97812 34.509377 292.57187 34.821877Q292.16562 35.134377 291.93124 35.978127Q291.7125 36.80625 291.7125 39.446877L291.7125 42.65ZM303.07187 42.65L303.07187 28.337502L307.4 28.337502L309.99374 38.103127L312.55624 28.337502L316.9 28.337502L316.9 42.65L314.2125 42.65L314.2125 31.384377L311.36874 42.65L308.5875 42.65L305.75937 31.384377L305.75937 42.65L303.07187 42.65ZM319.44687 37.321877Q319.44687 35.946877 320.11874 34.665627Q320.80624 33.384377 322.04062 32.7125Q323.275 32.040627 324.79062 32.040627Q327.15 32.040627 328.65 33.571877Q330.15 35.103127 330.15 37.43125Q330.15 39.790627 328.63437 41.3375Q327.11874 42.884377 324.80624 42.884377Q323.38437 42.884377 322.0875 42.24375Q320.80624 41.5875 320.11874 40.353127Q319.44687 39.103127 319.44687 37.321877ZM322.25937 37.4625Q322.25937 39.009377 322.99374 39.8375Q323.72812 40.65 324.80624 40.65Q325.88437 40.65 326.60312 39.8375Q327.3375 39.009377 327.3375 37.446877Q327.3375 35.915627 326.60312 35.103127Q325.88437 34.275 324.80624 34.275Q323.72812 34.275 322.99374 35.103127Q322.25937 35.915627 322.25937 37.4625ZM341.60312 42.65L339.05624 42.65L339.05624 41.11875Q338.41562 42.009377 337.54062 42.446877Q336.68124 42.884377 335.80624 42.884377Q334.025 42.884377 332.74374 41.446877Q331.47812 40.009377 331.47812 37.43125Q331.47812 34.790627 332.7125 33.415627Q333.94687 32.040627 335.85312 32.040627Q337.5875 32.040627 338.85312 33.49375L338.85312 28.337502L341.60312 28.337502L341.60312 42.65ZM334.275 37.24375Q334.275 38.9 334.72812 39.634377Q335.4 40.7125 336.5875 40.7125Q337.54062 40.7125 338.19687 39.915627Q338.86874 39.103127 338.86874 37.509377Q338.86874 35.7125 338.2125 34.93125Q337.57187 34.15 336.57187 34.15Q335.5875 34.15 334.93124 34.93125Q334.275 35.696877 334.275 37.24375ZM350.0875 39.353127L352.82187 39.80625Q352.30624 41.30625 351.16562 42.103127Q350.025 42.884377 348.32187 42.884377Q345.60312 42.884377 344.30624 41.11875Q343.29062 39.696877 343.29062 37.540627Q343.29062 34.9625 344.63437 33.509377Q345.97812 32.040627 348.04062 32.040627Q350.35312 32.040627 351.68124 33.571877Q353.025 35.103127 352.97812 38.259377L346.10312 38.259377Q346.13437 39.478127 346.75937 40.165627Q347.4 40.8375 348.3375 40.8375Q348.99374 40.8375 349.43124 40.49375Q349.86874 40.134377 350.0875 39.353127ZM350.24374 36.571877Q350.2125 35.384377 349.61874 34.775Q349.04062 34.15 348.2125 34.15Q347.30624 34.15 346.72812 34.790627Q346.13437 35.446877 346.15 36.571877L350.24374 36.571877ZM355.0875 42.65L355.0875 28.337502L357.8375 28.337502L357.8375 42.65L355.0875 42.65Z" fill-rule="nonzero"/></svg>